<svg xmlns="http://www.w3.org/2000/svg" viewBox="0 0 700 350" fill="none">
  <rect width="700" height="350" fill="#f8fafc"/>
  <rect x="50" y="20" width="600" height="310" rx="16" fill="white" stroke="#e2e8f0"/>
  <rect x="50" y="20" width="600" height="100" rx="16" fill="#10b981"/>
  <rect x="310" y="40" width="50" height="50" rx="14" fill="rgba(255,255,255,0.2)"/>
  <text x="335" y="72" text-anchor="middle" fill="white" font-size="22">🏆</text>
  <text x="350" y="100" text-anchor="middle" fill="white" font-size="18" font-weight="bold">Lesson Complete!</text>
  <rect x="100" y="145" width="160" height="80" rx="14" fill="#ecfdf5" stroke="#a7f3d0"/>
  <text x="180" y="180" text-anchor="middle" fill="#10b981" font-size="28" font-weight="bold">4</text>
  <text x="180" y="205" text-anchor="middle" fill="#065f46" font-size="9" font-weight="600">CORRECT</text>
  <rect x="275" y="145" width="160" height="80" rx="14" fill="#fef2f2" stroke="#fecaca"/>
  <text x="355" y="180" text-anchor="middle" fill="#ef4444" font-size="28" font-weight="bold">1</text>
  <text x="355" y="205" text-anchor="middle" fill="#991b1b" font-size="9" font-weight="600">WRONG</text>
  <rect x="450" y="145" width="160" height="80" rx="14" fill="#f8fafc" stroke="#e2e8f0"/>
  <text x="530" y="180" text-anchor="middle" fill="#475569" font-size="28" font-weight="bold">80%</text>
  <text x="530" y="205" text-anchor="middle" fill="#475569" font-size="9" font-weight="600">ACCURACY</text>
  <rect x="100" y="250" width="500" height="8" rx="4" fill="#f1f5f9"/>
  <rect x="100" y="250" width="400" height="8" rx="4" fill="#10b981"/>
  <rect x="270" y="280" width="160" height="36" rx="8" fill="#10b981"/>
  <text x="350" y="303" text-anchor="middle" fill="white" font-size="12" font-weight="600">Review Answers</text>
</svg>
