<svg xmlns="http://www.w3.org/2000/svg" viewBox="0 0 800 350" fill="none">
  <rect width="800" height="350" fill="#f8fafc"/>
  <rect x="30" y="20" width="230" height="310" rx="16" fill="white" stroke="#e2e8f0"/>
  <rect x="55" y="45" width="36" height="36" rx="10" fill="#f1f5f9"/>
  <text x="73" y="68" text-anchor="middle" fill="#64748b" font-size="14">⭐</text>
  <text x="55" y="105" fill="#1e293b" font-size="14" font-weight="bold">Starter</text>
  <text x="55" y="122" fill="#64748b" font-size="10">For individual educators</text>
  <text x="55" y="155" fill="#1e293b" font-size="28" font-weight="bold">$0</text>
  <text x="100" y="155" fill="#94a3b8" font-size="10">/mo</text>
  <text x="55" y="185" fill="#475569" font-size="10">✓ 1 Class creation</text>
  <text x="55" y="205" fill="#475569" font-size="10">✓ Max 10 Students</text>
  <text x="55" y="225" fill="#475569" font-size="10">✓ Max 5 Lessons</text>
  <rect x="55" y="260" width="180" height="34" rx="8" fill="#1e293b"/>
  <text x="145" y="282" text-anchor="middle" fill="white" font-size="11" font-weight="600">Get Started</text>
  <rect x="285" y="10" width="230" height="330" rx="16" fill="white" stroke="#10b981" stroke-width="2"/>
  <rect x="340" y="3" width="80" height="18" rx="9" fill="#10b981"/>
  <text x="380" y="15" text-anchor="middle" fill="white" font-size="8" font-weight="700">POPULAR</text>
  <rect x="310" y="45" width="36" height="36" rx="10" fill="#ecfdf5"/>
  <text x="328" y="68" text-anchor="middle" fill="#10b981" font-size="14">🚀</text>
  <text x="310" y="105" fill="#1e293b" font-size="14" font-weight="bold">Medium</text>
  <text x="310" y="122" fill="#64748b" font-size="10">For growing teams</text>
  <text x="310" y="155" fill="#1e293b" font-size="28" font-weight="bold">$19</text>
  <text x="365" y="155" fill="#94a3b8" font-size="10">/mo</text>
  <text x="310" y="185" fill="#475569" font-size="10">✓ Up to 10 Classes</text>
  <text x="310" y="205" fill="#475569" font-size="10">✓ Max 50 Students</text>
  <text x="310" y="225" fill="#475569" font-size="10">✓ Max 20 Lessons</text>
  <rect x="310" y="270" width="180" height="34" rx="8" fill="#10b981"/>
  <text x="400" y="292" text-anchor="middle" fill="white" font-size="11" font-weight="600">Subscribe Now</text>
  <rect x="540" y="20" width="230" height="310" rx="16" fill="white" stroke="#e2e8f0"/>
  <rect x="565" y="45" width="36" height="36" rx="10" fill="#ecfdf5"/>
  <text x="583" y="68" text-anchor="middle" fill="#10b981" font-size="14">💎</text>
  <text x="565" y="105" fill="#1e293b" font-size="14" font-weight="bold">Enterprise</text>
  <text x="565" y="122" fill="#64748b" font-size="10">Unlimited power</text>
  <text x="565" y="155" fill="#1e293b" font-size="28" font-weight="bold">$49</text>
  <text x="620" y="155" fill="#94a3b8" font-size="10">/mo</text>
  <text x="565" y="185" fill="#475569" font-size="10">✓ Unlimited Classes</text>
  <text x="565" y="205" fill="#475569" font-size="10">✓ Unlimited Students</text>
  <text x="565" y="225" fill="#475569" font-size="10">✓ Unlimited Lessons</text>
  <rect x="565" y="260" width="180" height="34" rx="8" fill="#10b981"/>
  <text x="655" y="282" text-anchor="middle" fill="white" font-size="11" font-weight="600">Subscribe Now</text>
</svg>
