<svg xmlns="http://www.w3.org/2000/svg" xmlns:xlink="http://www.w3.org/1999/xlink" width="933" zoomAndPan="magnify" viewBox="0 0 699.75 500.249999" height="667" preserveAspectRatio="xMidYMid meet" version="1.0"><defs><g/><clipPath id="78f8b82c20"><path d="M 2.269531 190 L 144 190 L 144 333 L 2.269531 333 Z M 2.269531 190 " clip-rule="nonzero"/></clipPath><clipPath id="59301648d6"><path d="M 194 466 L 278 466 L 278 499.5 L 194 499.5 Z M 194 466 " clip-rule="nonzero"/></clipPath><clipPath id="067357c54d"><path d="M 271 357 L 512 357 L 512 499.5 L 271 499.5 Z M 271 357 " clip-rule="nonzero"/></clipPath><clipPath id="0a7abfe47c"><path d="M 270 356 L 506 356 L 506 499.5 L 270 499.5 Z M 270 356 " clip-rule="nonzero"/></clipPath><clipPath id="d962af0ae7"><path d="M 362 144 L 697.230469 144 L 697.230469 265 L 362 265 Z M 362 144 " clip-rule="nonzero"/></clipPath><clipPath id="c5c96bbfc4"><rect x="0" width="20" y="0" height="59"/></clipPath></defs><g clip-path="url(#78f8b82c20)"><path fill="#2e2c3f" d="M 143.609375 261.375 C 143.609375 262.53125 143.578125 263.6875 143.523438 264.839844 C 143.464844 265.996094 143.378906 267.148438 143.265625 268.300781 C 143.152344 269.449219 143.011719 270.597656 142.84375 271.742188 C 142.671875 272.882812 142.476562 274.023438 142.25 275.15625 C 142.023438 276.289062 141.769531 277.417969 141.492188 278.539062 C 141.210938 279.660156 140.902344 280.773438 140.566406 281.882812 C 140.230469 282.988281 139.867188 284.085938 139.476562 285.171875 C 139.089844 286.261719 138.671875 287.339844 138.230469 288.410156 C 137.789062 289.476562 137.320312 290.535156 136.824219 291.578125 C 136.332031 292.625 135.8125 293.65625 135.265625 294.675781 C 134.722656 295.695312 134.152344 296.699219 133.558594 297.691406 C 132.964844 298.683594 132.34375 299.660156 131.703125 300.621094 C 131.058594 301.582031 130.394531 302.527344 129.707031 303.457031 C 129.015625 304.386719 128.304688 305.296875 127.574219 306.191406 C 126.839844 307.082031 126.085938 307.957031 125.308594 308.816406 C 124.53125 309.671875 123.734375 310.507812 122.917969 311.328125 C 122.101562 312.144531 121.261719 312.941406 120.40625 313.71875 C 119.550781 314.492188 118.675781 315.25 117.78125 315.980469 C 116.886719 316.714844 115.976562 317.425781 115.046875 318.113281 C 114.117188 318.804688 113.171875 319.46875 112.210938 320.113281 C 111.25 320.753906 110.273438 321.371094 109.28125 321.964844 C 108.292969 322.5625 107.285156 323.128906 106.265625 323.675781 C 105.246094 324.21875 104.214844 324.742188 103.167969 325.234375 C 102.125 325.730469 101.066406 326.195312 100 326.640625 C 98.929688 327.082031 97.851562 327.496094 96.765625 327.886719 C 95.675781 328.277344 94.578125 328.640625 93.472656 328.976562 C 92.367188 329.3125 91.253906 329.617188 90.128906 329.898438 C 89.007812 330.179688 87.882812 330.433594 86.746094 330.660156 C 85.613281 330.886719 84.476562 331.082031 83.332031 331.253906 C 82.1875 331.421875 81.039062 331.5625 79.890625 331.675781 C 78.738281 331.789062 77.585938 331.875 76.433594 331.933594 C 75.277344 331.988281 74.121094 332.015625 72.964844 332.015625 C 71.808594 332.015625 70.65625 331.988281 69.5 331.933594 C 68.34375 331.875 67.191406 331.789062 66.042969 331.675781 C 64.890625 331.5625 63.746094 331.421875 62.601562 331.253906 C 61.457031 331.082031 60.320312 330.886719 59.183594 330.660156 C 58.050781 330.433594 56.921875 330.179688 55.800781 329.898438 C 54.679688 329.617188 53.566406 329.3125 52.460938 328.976562 C 51.355469 328.640625 50.257812 328.277344 49.167969 327.886719 C 48.078125 327.496094 47 327.082031 45.933594 326.640625 C 44.863281 326.195312 43.808594 325.730469 42.761719 325.234375 C 41.71875 324.738281 40.683594 324.21875 39.664062 323.675781 C 38.644531 323.128906 37.640625 322.5625 36.648438 321.964844 C 35.65625 321.371094 34.679688 320.753906 33.71875 320.113281 C 32.757812 319.46875 31.8125 318.804688 30.886719 318.113281 C 29.957031 317.425781 29.046875 316.714844 28.152344 315.980469 C 27.257812 315.25 26.382812 314.492188 25.527344 313.71875 C 24.667969 312.941406 23.832031 312.144531 23.015625 311.328125 C 22.199219 310.507812 21.402344 309.671875 20.625 308.816406 C 19.847656 307.957031 19.09375 307.082031 18.359375 306.191406 C 17.625 305.296875 16.914062 304.386719 16.226562 303.457031 C 15.539062 302.527344 14.871094 301.582031 14.230469 300.621094 C 13.585938 299.660156 12.96875 298.683594 12.375 297.691406 C 11.78125 296.699219 11.210938 295.695312 10.664062 294.675781 C 10.121094 293.65625 9.601562 292.625 9.105469 291.578125 C 8.613281 290.535156 8.144531 289.476562 7.703125 288.410156 C 7.257812 287.339844 6.84375 286.261719 6.453125 285.171875 C 6.0625 284.085938 5.703125 282.988281 5.367188 281.882812 C 5.03125 280.773438 4.722656 279.660156 4.441406 278.539062 C 4.160156 277.417969 3.90625 276.289062 3.683594 275.15625 C 3.457031 274.023438 3.257812 272.882812 3.089844 271.742188 C 2.917969 270.597656 2.777344 269.449219 2.664062 268.300781 C 2.550781 267.148438 2.464844 265.996094 2.410156 264.839844 C 2.351562 263.6875 2.324219 262.53125 2.324219 261.375 C 2.324219 260.21875 2.351562 259.0625 2.410156 257.910156 C 2.464844 256.753906 2.550781 255.601562 2.664062 254.453125 C 2.777344 253.300781 2.917969 252.152344 3.089844 251.011719 C 3.257812 249.867188 3.457031 248.726562 3.683594 247.59375 C 3.90625 246.460938 4.160156 245.332031 4.441406 244.210938 C 4.722656 243.089844 5.03125 241.976562 5.367188 240.871094 C 5.703125 239.761719 6.0625 238.664062 6.453125 237.578125 C 6.84375 236.488281 7.257812 235.410156 7.703125 234.34375 C 8.144531 233.273438 8.613281 232.21875 9.105469 231.171875 C 9.601562 230.128906 10.121094 229.09375 10.664062 228.074219 C 11.210938 227.054688 11.78125 226.050781 12.375 225.058594 C 12.96875 224.066406 13.585938 223.089844 14.230469 222.128906 C 14.871094 221.167969 15.539062 220.222656 16.226562 219.292969 C 16.914062 218.367188 17.625 217.453125 18.359375 216.5625 C 19.09375 215.667969 19.847656 214.792969 20.625 213.933594 C 21.402344 213.078125 22.199219 212.242188 23.015625 211.425781 C 23.832031 210.605469 24.667969 209.808594 25.527344 209.035156 C 26.382812 208.257812 27.257812 207.503906 28.152344 206.769531 C 29.046875 206.035156 29.957031 205.324219 30.886719 204.636719 C 31.8125 203.945312 32.757812 203.28125 33.71875 202.640625 C 34.679688 201.996094 35.65625 201.378906 36.648438 200.785156 C 37.640625 200.191406 38.644531 199.621094 39.664062 199.074219 C 40.683594 198.53125 41.71875 198.011719 42.761719 197.515625 C 43.808594 197.023438 44.863281 196.554688 45.933594 196.109375 C 47 195.667969 48.078125 195.253906 49.167969 194.863281 C 50.257812 194.472656 51.355469 194.109375 52.460938 193.777344 C 53.566406 193.441406 54.679688 193.132812 55.800781 192.851562 C 56.921875 192.570312 58.050781 192.316406 59.183594 192.089844 C 60.320312 191.867188 61.457031 191.667969 62.601562 191.5 C 63.746094 191.328125 64.890625 191.1875 66.042969 191.074219 C 67.191406 190.960938 68.34375 190.875 69.5 190.820312 C 70.65625 190.761719 71.808594 190.734375 72.964844 190.734375 C 74.121094 190.734375 75.277344 190.761719 76.433594 190.820312 C 77.585938 190.875 78.738281 190.960938 79.890625 191.074219 C 81.039062 191.1875 82.1875 191.328125 83.332031 191.5 C 84.476562 191.667969 85.613281 191.867188 86.746094 192.089844 C 87.882812 192.316406 89.007812 192.570312 90.128906 192.851562 C 91.253906 193.132812 92.367188 193.441406 93.472656 193.777344 C 94.578125 194.109375 95.675781 194.472656 96.765625 194.863281 C 97.851562 195.253906 98.929688 195.667969 100 196.109375 C 101.066406 196.554688 102.125 197.023438 103.167969 197.515625 C 104.214844 198.011719 105.246094 198.53125 106.265625 199.074219 C 107.285156 199.621094 108.292969 200.191406 109.28125 200.785156 C 110.273438 201.378906 111.25 201.996094 112.210938 202.640625 C 113.171875 203.28125 114.117188 203.945312 115.046875 204.636719 C 115.976562 205.324219 116.886719 206.035156 117.78125 206.769531 C 118.675781 207.503906 119.550781 208.257812 120.40625 209.035156 C 121.261719 209.808594 122.101562 210.605469 122.917969 211.425781 C 123.734375 212.242188 124.53125 213.078125 125.308594 213.933594 C 126.085938 214.792969 126.839844 215.667969 127.574219 216.5625 C 128.304688 217.453125 129.015625 218.367188 129.707031 219.292969 C 130.394531 220.222656 131.058594 221.167969 131.703125 222.128906 C 132.34375 223.089844 132.964844 224.066406 133.558594 225.058594 C 134.152344 226.050781 134.722656 227.054688 135.265625 228.074219 C 135.8125 229.09375 136.332031 230.128906 136.824219 231.171875 C 137.320312 232.21875 137.789062 233.273438 138.230469 234.34375 C 138.671875 235.410156 139.089844 236.488281 139.476562 237.578125 C 139.867188 238.664062 140.230469 239.761719 140.566406 240.867188 C 140.902344 241.976562 141.210938 243.089844 141.492188 244.210938 C 141.769531 245.332031 142.023438 246.460938 142.25 247.59375 C 142.476562 248.726562 142.671875 249.867188 142.84375 251.011719 C 143.011719 252.152344 143.152344 253.300781 143.265625 254.453125 C 143.378906 255.601562 143.464844 256.753906 143.523438 257.910156 C 143.578125 259.0625 143.609375 260.21875 143.609375 261.375 Z M 143.609375 261.375 " fill-opacity="1" fill-rule="nonzero"/></g><path fill="#2e2c3f" d="M 36.007812 183.332031 L 52.914062 177.386719 L 59.71875 196.734375 L 42.8125 202.679688 Z M 36.007812 183.332031 " fill-opacity="1" fill-rule="nonzero"/><path fill="#2e2c3f" d="M 29.683594 182.105469 L 57.070312 172.46875 L 59.941406 180.636719 L 32.554688 190.269531 Z M 29.683594 182.105469 " fill-opacity="1" fill-rule="nonzero"/><path fill="#2e2c3f" d="M 36.0625 176.734375 L 29.691406 182.089844 L 32.566406 190.265625 L 38.9375 184.890625 Z M 36.0625 176.734375 " fill-opacity="1" fill-rule="nonzero"/><path fill="#00c950" d="M 149.980469 256 C 149.980469 257.15625 149.953125 258.3125 149.894531 259.46875 C 149.839844 260.621094 149.753906 261.777344 149.640625 262.925781 C 149.527344 264.078125 149.386719 265.222656 149.214844 266.367188 C 149.046875 267.511719 148.847656 268.648438 148.621094 269.785156 C 148.398438 270.917969 148.144531 272.046875 147.863281 273.167969 C 147.582031 274.289062 147.273438 275.402344 146.9375 276.507812 C 146.601562 277.613281 146.238281 278.710938 145.851562 279.800781 C 145.460938 280.890625 145.046875 281.96875 144.601562 283.035156 C 144.160156 284.101562 143.691406 285.160156 143.199219 286.203125 C 142.703125 287.25 142.183594 288.28125 141.640625 289.300781 C 141.09375 290.320312 140.523438 291.328125 139.929688 292.320312 C 139.335938 293.3125 138.71875 294.285156 138.074219 295.25 C 137.433594 296.210938 136.765625 297.15625 136.078125 298.082031 C 135.390625 299.011719 134.679688 299.921875 133.945312 300.816406 C 133.210938 301.710938 132.457031 302.585938 131.679688 303.441406 C 130.902344 304.296875 130.105469 305.136719 129.289062 305.953125 C 128.472656 306.769531 127.636719 307.566406 126.777344 308.34375 C 125.921875 309.121094 125.046875 309.875 124.152344 310.609375 C 123.257812 311.34375 122.347656 312.054688 121.417969 312.742188 C 120.492188 313.429688 119.546875 314.097656 118.585938 314.738281 C 117.625 315.378906 116.648438 316 115.65625 316.59375 C 114.664062 317.1875 113.660156 317.757812 112.636719 318.300781 C 111.617188 318.847656 110.585938 319.367188 109.542969 319.859375 C 108.496094 320.355469 107.441406 320.824219 106.371094 321.265625 C 105.304688 321.707031 104.226562 322.125 103.136719 322.515625 C 102.046875 322.902344 100.949219 323.265625 99.84375 323.601562 C 98.738281 323.9375 97.625 324.246094 96.503906 324.527344 C 95.382812 324.808594 94.253906 325.058594 93.121094 325.285156 C 91.984375 325.511719 90.847656 325.710938 89.703125 325.878906 C 88.558594 326.046875 87.414062 326.191406 86.261719 326.304688 C 85.113281 326.417969 83.960938 326.5 82.804688 326.558594 C 81.648438 326.613281 80.496094 326.644531 79.339844 326.644531 C 78.183594 326.644531 77.027344 326.613281 75.871094 326.558594 C 74.71875 326.5 73.566406 326.417969 72.414062 326.304688 C 71.265625 326.191406 70.117188 326.046875 68.972656 325.878906 C 67.828125 325.710938 66.691406 325.511719 65.558594 325.285156 C 64.421875 325.058594 63.296875 324.808594 62.175781 324.527344 C 61.050781 324.246094 59.9375 323.9375 58.832031 323.601562 C 57.726562 323.265625 56.628906 322.902344 55.539062 322.515625 C 54.453125 322.125 53.375 321.707031 52.304688 321.265625 C 51.238281 320.824219 50.179688 320.355469 49.136719 319.859375 C 48.089844 319.367188 47.058594 318.847656 46.039062 318.300781 C 45.019531 317.757812 44.011719 317.1875 43.019531 316.59375 C 42.03125 316 41.054688 315.378906 40.09375 314.738281 C 39.128906 314.097656 38.1875 313.429688 37.257812 312.742188 C 36.328125 312.054688 35.417969 311.34375 34.523438 310.609375 C 33.628906 309.875 32.753906 309.121094 31.898438 308.34375 C 31.042969 307.566406 30.203125 306.769531 29.386719 305.953125 C 28.570312 305.136719 27.773438 304.296875 26.996094 303.441406 C 26.21875 302.585938 25.464844 301.710938 24.730469 300.816406 C 24 299.921875 23.289062 299.011719 22.597656 298.082031 C 21.910156 297.15625 21.246094 296.210938 20.601562 295.25 C 19.960938 294.285156 19.339844 293.308594 18.746094 292.320312 C 18.152344 291.328125 17.582031 290.320312 17.039062 289.300781 C 16.492188 288.28125 15.972656 287.25 15.480469 286.203125 C 14.984375 285.160156 14.515625 284.101562 14.074219 283.035156 C 13.632812 281.96875 13.214844 280.890625 12.828125 279.800781 C 12.4375 278.710938 12.074219 277.613281 11.738281 276.507812 C 11.402344 275.402344 11.09375 274.289062 10.8125 273.167969 C 10.53125 272.046875 10.28125 270.917969 10.054688 269.785156 C 9.828125 268.648438 9.632812 267.511719 9.460938 266.367188 C 9.292969 265.222656 9.148438 264.078125 9.035156 262.925781 C 8.921875 261.777344 8.839844 260.621094 8.78125 259.46875 C 8.726562 258.3125 8.695312 257.15625 8.695312 256 C 8.695312 254.847656 8.726562 253.691406 8.78125 252.535156 C 8.839844 251.382812 8.921875 250.226562 9.035156 249.078125 C 9.148438 247.925781 9.292969 246.78125 9.460938 245.636719 C 9.632812 244.492188 9.828125 243.355469 10.054688 242.21875 C 10.28125 241.085938 10.53125 239.957031 10.8125 238.835938 C 11.09375 237.714844 11.402344 236.601562 11.738281 235.496094 C 12.074219 234.390625 12.4375 233.292969 12.828125 232.203125 C 13.214844 231.113281 13.632812 230.035156 14.074219 228.96875 C 14.515625 227.902344 14.984375 226.84375 15.480469 225.796875 C 15.972656 224.753906 16.492188 223.722656 17.039062 222.703125 C 17.582031 221.683594 18.152344 220.675781 18.746094 219.683594 C 19.339844 218.691406 19.960938 217.71875 20.601562 216.753906 C 21.246094 215.792969 21.910156 214.847656 22.597656 213.921875 C 23.289062 212.992188 24 212.082031 24.730469 211.1875 C 25.464844 210.292969 26.21875 209.417969 26.996094 208.5625 C 27.773438 207.707031 28.570312 206.867188 29.386719 206.050781 C 30.203125 205.234375 31.042969 204.4375 31.898438 203.660156 C 32.753906 202.882812 33.628906 202.128906 34.523438 201.394531 C 35.417969 200.660156 36.328125 199.949219 37.257812 199.261719 C 38.1875 198.574219 39.128906 197.90625 40.09375 197.265625 C 41.054688 196.625 42.03125 196.003906 43.019531 195.410156 C 44.011719 194.816406 45.019531 194.246094 46.039062 193.703125 C 47.058594 193.15625 48.089844 192.636719 49.136719 192.144531 C 50.179688 191.648438 51.238281 191.179688 52.304688 190.738281 C 53.375 190.296875 54.453125 189.878906 55.539062 189.488281 C 56.628906 189.101562 57.726562 188.738281 58.832031 188.402344 C 59.9375 188.066406 61.050781 187.757812 62.175781 187.476562 C 63.296875 187.195312 64.421875 186.941406 65.558594 186.71875 C 66.691406 186.492188 67.828125 186.292969 68.972656 186.125 C 70.117188 185.957031 71.265625 185.8125 72.414062 185.699219 C 73.566406 185.585938 74.71875 185.503906 75.871094 185.445312 C 77.027344 185.390625 78.183594 185.359375 79.339844 185.359375 C 80.496094 185.359375 81.648438 185.390625 82.804688 185.445312 C 83.960938 185.503906 85.113281 185.585938 86.261719 185.699219 C 87.414062 185.8125 88.558594 185.957031 89.703125 186.125 C 90.847656 186.292969 91.984375 186.492188 93.121094 186.71875 C 94.253906 186.941406 95.382812 187.195312 96.503906 187.476562 C 97.625 187.757812 98.738281 188.066406 99.84375 188.402344 C 100.949219 188.738281 102.046875 189.101562 103.136719 189.488281 C 104.226562 189.878906 105.304688 190.296875 106.371094 190.738281 C 107.441406 191.179688 108.496094 191.648438 109.542969 192.144531 C 110.585938 192.636719 111.617188 193.15625 112.636719 193.703125 C 113.660156 194.246094 114.664062 194.816406 115.65625 195.410156 C 116.648438 196.003906 117.625 196.625 118.585938 197.265625 C 119.546875 197.90625 120.492188 198.574219 121.417969 199.261719 C 122.347656 199.949219 123.257812 200.660156 124.152344 201.394531 C 125.046875 202.128906 125.921875 202.882812 126.777344 203.660156 C 127.636719 204.4375 128.472656 205.234375 129.289062 206.050781 C 130.105469 206.867188 130.902344 207.707031 131.679688 208.5625 C 132.457031 209.417969 133.210938 210.292969 133.945312 211.1875 C 134.679688 212.082031 135.390625 212.992188 136.078125 213.921875 C 136.765625 214.847656 137.433594 215.792969 138.074219 216.753906 C 138.71875 217.71875 139.335938 218.691406 139.929688 219.683594 C 140.523438 220.675781 141.09375 221.683594 141.640625 222.703125 C 142.183594 223.722656 142.703125 224.753906 143.199219 225.796875 C 143.691406 226.84375 144.160156 227.902344 144.601562 228.96875 C 145.046875 230.035156 145.460938 231.113281 145.851562 232.203125 C 146.238281 233.292969 146.601562 234.390625 146.9375 235.496094 C 147.273438 236.601562 147.582031 237.714844 147.863281 238.835938 C 148.144531 239.957031 148.398438 241.085938 148.621094 242.21875 C 148.847656 243.355469 149.046875 244.492188 149.214844 245.636719 C 149.386719 246.78125 149.527344 247.925781 149.640625 249.078125 C 149.753906 250.226562 149.839844 251.382812 149.894531 252.535156 C 149.953125 253.691406 149.980469 254.847656 149.980469 256 Z M 149.980469 256 " fill-opacity="1" fill-rule="nonzero"/><path fill="#ffffff" d="M 134.070312 256 C 134.070312 257.792969 133.984375 259.582031 133.808594 261.367188 C 133.632812 263.152344 133.371094 264.921875 133.019531 266.679688 C 132.671875 268.4375 132.234375 270.175781 131.714844 271.890625 C 131.195312 273.605469 130.589844 275.292969 129.90625 276.949219 C 129.21875 278.601562 128.453125 280.222656 127.609375 281.804688 C 126.765625 283.382812 125.84375 284.917969 124.847656 286.410156 C 123.851562 287.902344 122.785156 289.339844 121.648438 290.722656 C 120.511719 292.109375 119.308594 293.4375 118.039062 294.703125 C 116.773438 295.972656 115.445312 297.175781 114.0625 298.3125 C 112.675781 299.449219 111.238281 300.515625 109.746094 301.511719 C 108.257812 302.507812 106.71875 303.425781 105.140625 304.273438 C 103.558594 305.117188 101.941406 305.882812 100.285156 306.570312 C 98.628906 307.253906 96.941406 307.859375 95.226562 308.378906 C 93.511719 308.898438 91.773438 309.332031 90.015625 309.683594 C 88.257812 310.03125 86.488281 310.296875 84.703125 310.472656 C 82.917969 310.648438 81.132812 310.734375 79.339844 310.734375 C 77.546875 310.734375 75.757812 310.648438 73.972656 310.472656 C 72.191406 310.296875 70.417969 310.03125 68.660156 309.683594 C 66.902344 309.332031 65.164062 308.898438 63.449219 308.378906 C 61.734375 307.859375 60.050781 307.253906 58.394531 306.570312 C 56.738281 305.882812 55.117188 305.117188 53.539062 304.273438 C 51.957031 303.425781 50.421875 302.507812 48.929688 301.511719 C 47.441406 300.515625 46 299.449219 44.617188 298.3125 C 43.230469 297.175781 41.902344 295.972656 40.636719 294.703125 C 39.367188 293.4375 38.167969 292.109375 37.027344 290.722656 C 35.890625 289.339844 34.824219 287.902344 33.828125 286.410156 C 32.832031 284.917969 31.914062 283.382812 31.066406 281.804688 C 30.222656 280.222656 29.457031 278.601562 28.773438 276.949219 C 28.085938 275.292969 27.480469 273.605469 26.960938 271.890625 C 26.441406 270.175781 26.007812 268.4375 25.65625 266.679688 C 25.308594 264.921875 25.042969 263.152344 24.867188 261.367188 C 24.691406 259.582031 24.605469 257.792969 24.605469 256 C 24.605469 254.210938 24.691406 252.421875 24.867188 250.636719 C 25.042969 248.851562 25.308594 247.082031 25.65625 245.324219 C 26.007812 243.566406 26.441406 241.828125 26.960938 240.113281 C 27.480469 238.398438 28.085938 236.710938 28.773438 235.054688 C 29.457031 233.398438 30.222656 231.78125 31.066406 230.199219 C 31.914062 228.621094 32.832031 227.085938 33.828125 225.59375 C 34.824219 224.101562 35.890625 222.664062 37.027344 221.28125 C 38.167969 219.894531 39.367188 218.566406 40.636719 217.300781 C 41.902344 216.03125 43.230469 214.828125 44.617188 213.691406 C 46 212.554688 47.441406 211.488281 48.929688 210.492188 C 50.421875 209.496094 51.957031 208.578125 53.539062 207.730469 C 55.117188 206.886719 56.738281 206.121094 58.394531 205.433594 C 60.050781 204.75 61.734375 204.144531 63.449219 203.625 C 65.164062 203.105469 66.902344 202.671875 68.660156 202.320312 C 70.417969 201.96875 72.191406 201.707031 73.972656 201.53125 C 75.757812 201.355469 77.546875 201.269531 79.339844 201.269531 C 81.132812 201.269531 82.917969 201.355469 84.703125 201.53125 C 86.488281 201.707031 88.257812 201.96875 90.015625 202.320312 C 91.773438 202.671875 93.511719 203.105469 95.226562 203.625 C 96.941406 204.144531 98.628906 204.75 100.285156 205.433594 C 101.941406 206.121094 103.558594 206.886719 105.140625 207.730469 C 106.71875 208.578125 108.257812 209.496094 109.746094 210.492188 C 111.238281 211.488281 112.675781 212.554688 114.0625 213.691406 C 115.445312 214.828125 116.773438 216.03125 118.039062 217.300781 C 119.308594 218.566406 120.511719 219.894531 121.648438 221.28125 C 122.785156 222.664062 123.851562 224.101562 124.847656 225.59375 C 125.84375 227.085938 126.765625 228.621094 127.609375 230.199219 C 128.453125 231.78125 129.21875 233.398438 129.90625 235.054688 C 130.589844 236.710938 131.195312 238.398438 131.714844 240.113281 C 132.234375 241.828125 132.671875 243.566406 133.019531 245.324219 C 133.371094 247.082031 133.632812 248.851562 133.808594 250.636719 C 133.984375 252.421875 134.070312 254.210938 134.070312 256 Z M 134.070312 256 " fill-opacity="1" fill-rule="nonzero"/><path fill="#ffffff" d="M 94.960938 256 C 94.960938 257.027344 94.859375 258.042969 94.660156 259.050781 C 94.457031 260.054688 94.164062 261.03125 93.769531 261.980469 C 93.378906 262.925781 92.894531 263.828125 92.328125 264.679688 C 91.757812 265.53125 91.109375 266.320312 90.382812 267.046875 C 89.660156 267.773438 88.871094 268.421875 88.015625 268.988281 C 87.164062 269.558594 86.265625 270.042969 85.316406 270.433594 C 84.367188 270.824219 83.390625 271.121094 82.386719 271.324219 C 81.378906 271.523438 80.363281 271.621094 79.339844 271.621094 C 78.3125 271.621094 77.296875 271.523438 76.289062 271.324219 C 75.285156 271.121094 74.308594 270.824219 73.359375 270.433594 C 72.414062 270.042969 71.511719 269.558594 70.660156 268.988281 C 69.808594 268.421875 69.019531 267.773438 68.292969 267.046875 C 67.566406 266.320312 66.921875 265.53125 66.351562 264.679688 C 65.78125 263.828125 65.300781 262.925781 64.90625 261.980469 C 64.515625 261.03125 64.21875 260.054688 64.019531 259.050781 C 63.816406 258.042969 63.71875 257.027344 63.71875 256 C 63.71875 254.976562 63.816406 253.960938 64.019531 252.953125 C 64.21875 251.949219 64.515625 250.972656 64.90625 250.023438 C 65.300781 249.078125 65.78125 248.175781 66.351562 247.324219 C 66.921875 246.46875 67.566406 245.679688 68.292969 244.957031 C 69.019531 244.230469 69.808594 243.582031 70.660156 243.015625 C 71.511719 242.445312 72.414062 241.960938 73.359375 241.570312 C 74.308594 241.175781 75.285156 240.882812 76.289062 240.679688 C 77.296875 240.480469 78.3125 240.382812 79.339844 240.382812 C 80.363281 240.382812 81.378906 240.480469 82.386719 240.679688 C 83.390625 240.882812 84.367188 241.175781 85.316406 241.570312 C 86.265625 241.960938 87.164062 242.445312 88.015625 243.011719 C 88.871094 243.582031 89.660156 244.230469 90.382812 244.957031 C 91.109375 245.679688 91.757812 246.46875 92.328125 247.324219 C 92.894531 248.175781 93.378906 249.078125 93.769531 250.023438 C 94.164062 250.972656 94.457031 251.949219 94.660156 252.953125 C 94.859375 253.960938 94.960938 254.976562 94.960938 256 Z M 94.960938 256 " fill-opacity="1" fill-rule="nonzero"/><path fill="#ffffff" d="M 90.128906 256 C 90.128906 256.710938 90.0625 257.414062 89.921875 258.105469 C 89.785156 258.800781 89.582031 259.476562 89.308594 260.132812 C 89.039062 260.785156 88.707031 261.410156 88.3125 261.996094 C 87.917969 262.585938 87.472656 263.132812 86.96875 263.632812 C 86.46875 264.132812 85.921875 264.582031 85.335938 264.976562 C 84.746094 265.367188 84.125 265.703125 83.46875 265.972656 C 82.8125 266.242188 82.140625 266.449219 81.445312 266.585938 C 80.75 266.726562 80.046875 266.792969 79.339844 266.792969 C 78.628906 266.792969 77.929688 266.726562 77.234375 266.585938 C 76.539062 266.449219 75.863281 266.242188 75.207031 265.972656 C 74.554688 265.703125 73.933594 265.367188 73.34375 264.976562 C 72.753906 264.582031 72.207031 264.132812 71.707031 263.632812 C 71.207031 263.132812 70.757812 262.585938 70.363281 261.996094 C 69.972656 261.410156 69.640625 260.785156 69.367188 260.132812 C 69.097656 259.476562 68.890625 258.800781 68.753906 258.105469 C 68.617188 257.414062 68.546875 256.710938 68.546875 256 C 68.546875 255.292969 68.617188 254.589844 68.753906 253.894531 C 68.890625 253.203125 69.097656 252.527344 69.367188 251.871094 C 69.640625 251.21875 69.972656 250.59375 70.363281 250.007812 C 70.757812 249.417969 71.207031 248.871094 71.707031 248.371094 C 72.207031 247.871094 72.753906 247.421875 73.34375 247.027344 C 73.933594 246.632812 74.554688 246.300781 75.207031 246.03125 C 75.863281 245.761719 76.539062 245.554688 77.234375 245.417969 C 77.929688 245.277344 78.628906 245.210938 79.339844 245.210938 C 80.046875 245.210938 80.75 245.277344 81.445312 245.417969 C 82.140625 245.554688 82.8125 245.761719 83.46875 246.03125 C 84.125 246.300781 84.746094 246.632812 85.335938 247.027344 C 85.921875 247.421875 86.46875 247.871094 86.96875 248.371094 C 87.472656 248.871094 87.917969 249.417969 88.3125 250.007812 C 88.707031 250.59375 89.039062 251.21875 89.308594 251.871094 C 89.582031 252.527344 89.785156 253.203125 89.921875 253.894531 C 90.0625 254.589844 90.128906 255.292969 90.128906 256 Z M 90.128906 256 " fill-opacity="1" fill-rule="nonzero"/><path fill="#2e2c3f" d="M 92.660156 296.472656 L 94.261719 295.910156 L 97.164062 304.164062 L 95.566406 304.726562 Z M 92.660156 296.472656 " fill-opacity="1" fill-rule="nonzero"/><path fill="#2e2c3f" d="M 69.039062 306.273438 L 70.65625 297.675781 L 72.324219 297.992188 L 70.707031 306.589844 Z M 69.039062 306.273438 " fill-opacity="1" fill-rule="nonzero"/><path fill="#2e2c3f" d="M 45.289062 294.425781 L 50.984375 287.785156 L 52.269531 288.886719 L 46.574219 295.527344 Z M 45.289062 294.425781 " fill-opacity="1" fill-rule="nonzero"/><path fill="#2e2c3f" d="M 30.605469 272.257812 L 38.859375 269.355469 L 39.421875 270.957031 L 31.167969 273.859375 Z M 30.605469 272.257812 " fill-opacity="1" fill-rule="nonzero"/><path fill="#2e2c3f" d="M 28.726562 247.394531 L 29.039062 245.726562 L 37.636719 247.339844 L 37.324219 249.007812 Z M 28.726562 247.394531 " fill-opacity="1" fill-rule="nonzero"/><path fill="#2e2c3f" d="M 39.816406 223.265625 L 40.917969 221.976562 L 47.558594 227.671875 L 46.457031 228.960938 Z M 39.816406 223.265625 " fill-opacity="1" fill-rule="nonzero"/><path fill="#2e2c3f" d="M 61.503906 207.863281 L 63.101562 207.300781 L 66.003906 215.554688 L 64.40625 216.117188 Z M 61.503906 207.863281 " fill-opacity="1" fill-rule="nonzero"/><path fill="#2e2c3f" d="M 86.355469 213.960938 L 87.964844 205.363281 L 89.632812 205.675781 L 88.019531 214.273438 Z M 86.355469 213.960938 " fill-opacity="1" fill-rule="nonzero"/><path fill="#2e2c3f" d="M 106.429688 223.113281 L 112.125 216.46875 L 113.410156 217.574219 L 107.714844 224.214844 Z M 106.429688 223.113281 " fill-opacity="1" fill-rule="nonzero"/><path fill="#2e2c3f" d="M 119.253906 241.070312 L 127.507812 238.167969 L 128.070312 239.769531 L 119.816406 242.671875 Z M 119.253906 241.070312 " fill-opacity="1" fill-rule="nonzero"/><path fill="#2e2c3f" d="M 121.046875 264.695312 L 121.359375 263.03125 L 129.960938 264.644531 L 129.648438 266.308594 Z M 121.046875 264.695312 " fill-opacity="1" fill-rule="nonzero"/><path fill="#2e2c3f" d="M 111.121094 284.375 L 112.222656 283.089844 L 118.863281 288.785156 L 117.761719 290.070312 Z M 111.121094 284.375 " fill-opacity="1" fill-rule="nonzero"/><path fill="#00c950" d="M 42.375 177.980469 L 59.28125 172.035156 L 66.085938 191.382812 L 49.179688 197.328125 Z M 42.375 177.980469 " fill-opacity="1" fill-rule="nonzero"/><path fill="#00c950" d="M 36.0625 176.75 L 63.449219 167.117188 L 66.324219 175.285156 L 38.9375 184.917969 Z M 36.0625 176.75 " fill-opacity="1" fill-rule="nonzero"/><path fill="#2e2c3f" d="M 80.398438 257.199219 L 79.429688 254.414062 L 115.894531 242.757812 L 116.136719 243.453125 Z M 80.398438 257.199219 " fill-opacity="1" fill-rule="nonzero"/><path fill="#2e2c3f" d="M 81.277344 257.078125 L 78.492188 258.046875 L 66.851562 221.582031 L 67.53125 221.339844 Z M 81.277344 257.078125 " fill-opacity="1" fill-rule="nonzero"/><path fill="#2e2c3f" d="M 84.4375 256 C 84.4375 256.335938 84.40625 256.667969 84.339844 256.996094 C 84.277344 257.324219 84.179688 257.644531 84.050781 257.953125 C 83.921875 258.261719 83.765625 258.558594 83.578125 258.835938 C 83.394531 259.113281 83.183594 259.371094 82.945312 259.609375 C 82.707031 259.84375 82.449219 260.058594 82.171875 260.242188 C 81.894531 260.429688 81.601562 260.585938 81.289062 260.714844 C 80.980469 260.84375 80.660156 260.9375 80.332031 261.003906 C 80.003906 261.070312 79.671875 261.101562 79.339844 261.101562 C 79.003906 261.101562 78.671875 261.070312 78.34375 261.003906 C 78.015625 260.941406 77.695312 260.84375 77.386719 260.714844 C 77.078125 260.585938 76.78125 260.429688 76.503906 260.242188 C 76.226562 260.058594 75.96875 259.84375 75.730469 259.609375 C 75.496094 259.371094 75.28125 259.113281 75.097656 258.835938 C 74.910156 258.558594 74.753906 258.261719 74.625 257.953125 C 74.496094 257.644531 74.402344 257.324219 74.335938 256.996094 C 74.269531 256.667969 74.238281 256.335938 74.238281 256 C 74.238281 255.667969 74.269531 255.335938 74.335938 255.007812 C 74.402344 254.679688 74.496094 254.359375 74.625 254.050781 C 74.753906 253.742188 74.910156 253.445312 75.097656 253.167969 C 75.28125 252.890625 75.496094 252.632812 75.730469 252.394531 C 75.96875 252.15625 76.226562 251.945312 76.503906 251.761719 C 76.78125 251.574219 77.078125 251.417969 77.386719 251.289062 C 77.695312 251.160156 78.015625 251.0625 78.34375 251 C 78.671875 250.933594 79.003906 250.902344 79.339844 250.902344 C 79.671875 250.902344 80.003906 250.933594 80.332031 251 C 80.660156 251.0625 80.980469 251.160156 81.289062 251.289062 C 81.601562 251.417969 81.894531 251.574219 82.171875 251.761719 C 82.449219 251.945312 82.707031 252.15625 82.945312 252.394531 C 83.183594 252.632812 83.394531 252.890625 83.578125 253.167969 C 83.765625 253.445312 83.921875 253.742188 84.050781 254.050781 C 84.179688 254.359375 84.277344 254.679688 84.339844 255.007812 C 84.40625 255.335938 84.4375 255.667969 84.4375 256 Z M 84.4375 256 " fill-opacity="1" fill-rule="nonzero"/><path fill="#ffffff" d="M 351.898438 307.449219 C 348.238281 307.449219 344.847656 306.074219 342.363281 303.589844 C 339.882812 301.109375 338.519531 297.71875 338.519531 294.070312 L 339.109375 35.296875 L 339.183594 16.332031 C 339.183594 7.871094 346.40625 0.710938 354.910156 0.710938 L 629.621094 0.710938 C 633.285156 0.710938 636.675781 2.089844 639.171875 4.585938 C 641.65625 7.070312 643.003906 10.445312 642.988281 14.078125 L 642.910156 40.019531 L 642.335938 291.816406 C 642.335938 300.277344 635.117188 307.433594 626.609375 307.433594 L 351.898438 307.433594 Z M 351.898438 307.449219 " fill-opacity="1" fill-rule="nonzero"/><path fill="#00c950" d="M 629.636719 1.46875 C 636.78125 1.46875 642.277344 6.949219 642.246094 14.078125 L 642.183594 35.296875 L 642.183594 40.035156 C 642.183594 40.035156 641.59375 291.828125 641.59375 291.828125 C 641.59375 299.820312 634.664062 306.695312 626.625 306.695312 L 351.914062 306.695312 C 344.753906 306.695312 339.277344 301.199219 339.289062 294.070312 L 339.882812 40.035156 L 339.882812 35.296875 C 339.882812 35.296875 339.972656 16.332031 339.972656 16.332031 C 339.972656 8.324219 346.90625 1.46875 354.941406 1.46875 L 629.652344 1.46875 Z M 629.636719 -0.046875 L 354.925781 -0.046875 C 346.011719 -0.046875 338.457031 7.445312 338.441406 16.332031 L 338.367188 35.28125 L 338.367188 40.019531 C 338.367188 40.019531 337.777344 294.054688 337.777344 294.054688 C 337.777344 297.914062 339.214844 301.488281 341.832031 304.105469 C 344.46875 306.738281 348.039062 308.191406 351.914062 308.191406 L 626.625 308.191406 C 635.539062 308.191406 643.09375 300.699219 643.109375 291.816406 L 643.699219 40.019531 L 643.699219 35.28125 C 643.699219 35.28125 643.773438 14.0625 643.773438 14.0625 C 643.773438 10.21875 642.351562 6.660156 639.734375 4.027344 C 637.097656 1.378906 633.527344 -0.0742188 629.652344 -0.0742188 Z M 629.636719 -0.046875 " fill-opacity="1" fill-rule="nonzero"/><path fill="#00c950" d="M 642.246094 14.078125 L 642.171875 35.296875 L 339.867188 35.296875 L 339.941406 16.332031 C 339.941406 8.324219 346.875 1.46875 354.910156 1.46875 L 629.621094 1.46875 C 636.765625 1.46875 642.261719 6.949219 642.230469 14.078125 Z M 642.246094 14.078125 " fill-opacity="1" fill-rule="nonzero"/><path fill="#ffffff" d="M 363.886719 18.316406 C 363.886719 18.828125 363.789062 19.320312 363.59375 19.792969 C 363.398438 20.265625 363.117188 20.683594 362.757812 21.042969 C 362.394531 21.40625 361.976562 21.683594 361.503906 21.882812 C 361.03125 22.078125 360.539062 22.175781 360.027344 22.175781 C 359.515625 22.175781 359.023438 22.078125 358.550781 21.882812 C 358.078125 21.683594 357.660156 21.40625 357.296875 21.042969 C 356.9375 20.683594 356.65625 20.265625 356.460938 19.792969 C 356.265625 19.320312 356.167969 18.828125 356.167969 18.316406 C 356.167969 17.804688 356.265625 17.3125 356.460938 16.839844 C 356.65625 16.363281 356.9375 15.949219 357.296875 15.585938 C 357.660156 15.222656 358.078125 14.945312 358.550781 14.75 C 359.023438 14.554688 359.515625 14.457031 360.027344 14.457031 C 360.539062 14.457031 361.03125 14.554688 361.503906 14.75 C 361.976562 14.945312 362.394531 15.222656 362.757812 15.585938 C 363.117188 15.949219 363.398438 16.363281 363.59375 16.839844 C 363.789062 17.3125 363.886719 17.804688 363.886719 18.316406 Z M 363.886719 18.316406 " fill-opacity="1" fill-rule="nonzero"/><path fill="#ffffff" d="M 400.125 18.316406 C 400.125 18.828125 400.027344 19.320312 399.832031 19.792969 C 399.632812 20.265625 399.355469 20.683594 398.992188 21.042969 C 398.632812 21.40625 398.214844 21.683594 397.742188 21.882812 C 397.269531 22.078125 396.777344 22.175781 396.265625 22.175781 C 395.753906 22.175781 395.261719 22.078125 394.789062 21.882812 C 394.3125 21.683594 393.898438 21.40625 393.535156 21.042969 C 393.171875 20.683594 392.894531 20.265625 392.699219 19.792969 C 392.503906 19.320312 392.40625 18.828125 392.40625 18.316406 C 392.40625 17.804688 392.503906 17.3125 392.699219 16.839844 C 392.894531 16.363281 393.171875 15.949219 393.535156 15.585938 C 393.898438 15.222656 394.3125 14.945312 394.789062 14.75 C 395.261719 14.554688 395.753906 14.457031 396.265625 14.457031 C 396.777344 14.457031 397.269531 14.554688 397.742188 14.75 C 398.214844 14.945312 398.632812 15.222656 398.992188 15.585938 C 399.355469 15.949219 399.632812 16.363281 399.832031 16.839844 C 400.027344 17.3125 400.125 17.804688 400.125 18.316406 Z M 400.125 18.316406 " fill-opacity="1" fill-rule="nonzero"/><path fill="#ffffff" d="M 382.007812 18.316406 C 382.003906 18.828125 381.90625 19.320312 381.710938 19.792969 C 381.515625 20.265625 381.238281 20.683594 380.875 21.042969 C 380.511719 21.40625 380.097656 21.683594 379.625 21.882812 C 379.148438 22.078125 378.65625 22.175781 378.144531 22.175781 C 377.632812 22.175781 377.140625 22.078125 376.667969 21.882812 C 376.195312 21.683594 375.777344 21.40625 375.417969 21.042969 C 375.054688 20.683594 374.777344 20.265625 374.582031 19.792969 C 374.382812 19.320312 374.285156 18.828125 374.285156 18.316406 C 374.285156 17.804688 374.382812 17.3125 374.578125 16.839844 C 374.777344 16.363281 375.054688 15.949219 375.417969 15.585938 C 375.777344 15.222656 376.195312 14.945312 376.667969 14.75 C 377.140625 14.554688 377.632812 14.457031 378.144531 14.457031 C 378.65625 14.457031 379.148438 14.554688 379.625 14.75 C 380.097656 14.945312 380.511719 15.222656 380.875 15.585938 C 381.238281 15.949219 381.515625 16.363281 381.710938 16.839844 C 381.90625 17.3125 382.003906 17.804688 382.007812 18.316406 Z M 382.007812 18.316406 " fill-opacity="1" fill-rule="nonzero"/><path fill="#2e2c3f" d="M 166.449219 201.691406 C 167.613281 201.859375 260.761719 220.78125 274.855469 218.34375 C 288.949219 215.90625 283.753906 134.503906 283.753906 134.503906 L 255.753906 94.890625 C 255.753906 94.890625 224.164062 86.109375 222.742188 87.699219 C 221.316406 89.289062 175.605469 128.339844 175.605469 128.339844 C 175.605469 128.339844 160.621094 167.679688 160.863281 170.117188 C 161.105469 172.539062 166.433594 201.691406 166.433594 201.691406 Z M 166.449219 201.691406 " fill-opacity="1" fill-rule="nonzero"/><path fill="#efb098" d="M 184.097656 180.046875 C 184.097656 180.046875 187.125 201.421875 184.75 213.757812 C 181.085938 232.859375 172.441406 260.105469 172.441406 260.105469 L 211.570312 261.664062 C 211.570312 261.664062 240.691406 260.617188 240.570312 260.179688 C 240.449219 259.742188 243.566406 219.902344 243.566406 219.902344 L 184.082031 180.046875 Z M 184.097656 180.046875 " fill-opacity="1" fill-rule="nonzero"/><path fill="#efb098" d="M 252.074219 83.386719 C 252.074219 83.386719 279.488281 102.109375 280.257812 145.144531 C 281.046875 188.175781 263.003906 224.441406 243.402344 224.925781 C 223.800781 225.425781 192.210938 198.800781 181.707031 179.820312 C 171.203125 160.839844 162.363281 123.042969 177.558594 97.085938 C 192.753906 71.125 228.566406 72.546875 252.074219 83.386719 Z M 252.074219 83.386719 " fill-opacity="1" fill-rule="nonzero"/><path fill="#2e2c3f" d="M 153.597656 179.199219 C 152.25 200.816406 150.675781 209.5625 152.21875 211.257812 C 153.160156 212.289062 161 212.652344 167.886719 212.726562 C 167.71875 207.65625 168.960938 197.347656 168.960938 197.347656 C 169.066406 204.886719 171.445312 210.546875 172.578125 212.789062 C 175 212.773438 176.9375 212.757812 177.90625 212.757812 C 177.90625 212.757812 173.109375 197.96875 176.816406 171.527344 C 178.511719 159.355469 190.046875 142.085938 213.265625 138.589844 C 236.46875 135.109375 252.96875 113.886719 255.238281 104.515625 C 255.238281 104.515625 271.753906 116.472656 277.472656 140.769531 C 287.628906 183.890625 271.964844 225.988281 271.964844 225.988281 C 271.964844 225.988281 273.085938 226.03125 274.671875 225.773438 L 277.429688 225.0625 C 279.273438 224.414062 281.242188 223.246094 282.800781 221.277344 C 286.84375 216.191406 299.40625 180.984375 294.578125 144.417969 C 289.734375 107.878906 264.578125 54.929688 214.960938 71.625 C 214.960938 71.625 180.828125 61.863281 163.074219 99.613281 C 145.347656 137.378906 154.945312 157.570312 153.597656 179.183594 Z M 153.597656 179.199219 " fill-opacity="1" fill-rule="nonzero"/><path fill="#2e2c3f" d="M 257.601562 144.976562 C 257.601562 144.976562 266.316406 136.410156 273.554688 146.914062 Z M 257.601562 144.976562 " fill-opacity="1" fill-rule="nonzero"/><path fill="#2e2c3f" d="M 265.535156 160.859375 C 265.554688 161.191406 265.550781 161.523438 265.519531 161.851562 C 265.488281 162.179688 265.4375 162.5 265.359375 162.8125 C 265.28125 163.125 265.183594 163.421875 265.058594 163.707031 C 264.9375 163.992188 264.796875 164.253906 264.636719 164.5 C 264.476562 164.746094 264.296875 164.964844 264.105469 165.160156 C 263.910156 165.359375 263.703125 165.523438 263.480469 165.664062 C 263.261719 165.804688 263.03125 165.914062 262.792969 165.992188 C 262.554688 166.070312 262.3125 166.117188 262.066406 166.128906 C 261.820312 166.144531 261.578125 166.125 261.332031 166.074219 C 261.085938 166.019531 260.847656 165.9375 260.613281 165.824219 C 260.378906 165.707031 260.152344 165.566406 259.9375 165.390625 C 259.722656 165.21875 259.523438 165.019531 259.335938 164.792969 C 259.148438 164.566406 258.980469 164.320312 258.828125 164.050781 C 258.675781 163.78125 258.542969 163.496094 258.433594 163.195312 C 258.320312 162.894531 258.234375 162.582031 258.167969 162.257812 C 258.101562 161.933594 258.058594 161.605469 258.039062 161.273438 C 258.023438 160.941406 258.027344 160.609375 258.058594 160.28125 C 258.089844 159.953125 258.140625 159.632812 258.21875 159.320312 C 258.296875 159.007812 258.394531 158.710938 258.515625 158.425781 C 258.636719 158.140625 258.78125 157.878906 258.941406 157.632812 C 259.101562 157.386719 259.28125 157.167969 259.472656 156.972656 C 259.667969 156.777344 259.875 156.609375 260.097656 156.46875 C 260.316406 156.328125 260.546875 156.21875 260.785156 156.140625 C 261.019531 156.0625 261.261719 156.015625 261.507812 156.003906 C 261.753906 155.988281 262 156.007812 262.246094 156.0625 C 262.492188 156.113281 262.730469 156.195312 262.964844 156.308594 C 263.199219 156.425781 263.425781 156.570312 263.640625 156.742188 C 263.855469 156.914062 264.054688 157.113281 264.242188 157.339844 C 264.429688 157.566406 264.597656 157.8125 264.75 158.082031 C 264.902344 158.351562 265.035156 158.636719 265.144531 158.9375 C 265.253906 159.238281 265.34375 159.550781 265.410156 159.875 C 265.476562 160.199219 265.519531 160.527344 265.535156 160.859375 Z M 265.535156 160.859375 " fill-opacity="1" fill-rule="nonzero"/><path fill="#2e2c3f" d="M 227.878906 162.601562 C 227.898438 162.933594 227.890625 163.261719 227.863281 163.59375 C 227.832031 163.921875 227.777344 164.242188 227.699219 164.554688 C 227.625 164.867188 227.523438 165.164062 227.402344 165.449219 C 227.28125 165.730469 227.140625 165.996094 226.980469 166.242188 C 226.816406 166.484375 226.640625 166.707031 226.445312 166.902344 C 226.25 167.097656 226.042969 167.265625 225.824219 167.40625 C 225.601562 167.546875 225.375 167.652344 225.136719 167.730469 C 224.898438 167.808594 224.65625 167.855469 224.410156 167.871094 C 224.164062 167.882812 223.917969 167.863281 223.675781 167.8125 C 223.429688 167.761719 223.191406 167.679688 222.957031 167.5625 C 222.722656 167.449219 222.496094 167.304688 222.28125 167.132812 C 222.066406 166.957031 221.867188 166.757812 221.679688 166.535156 C 221.492188 166.308594 221.320312 166.0625 221.171875 165.792969 C 221.019531 165.523438 220.886719 165.238281 220.773438 164.9375 C 220.664062 164.632812 220.574219 164.320312 220.507812 163.996094 C 220.445312 163.675781 220.402344 163.347656 220.382812 163.015625 C 220.363281 162.679688 220.371094 162.351562 220.402344 162.023438 C 220.429688 161.695312 220.484375 161.371094 220.5625 161.0625 C 220.640625 160.75 220.738281 160.449219 220.859375 160.167969 C 220.980469 159.882812 221.121094 159.617188 221.285156 159.375 C 221.445312 159.128906 221.621094 158.910156 221.816406 158.710938 C 222.011719 158.515625 222.21875 158.347656 222.4375 158.207031 C 222.660156 158.070312 222.886719 157.960938 223.125 157.882812 C 223.363281 157.804688 223.605469 157.757812 223.851562 157.742188 C 224.097656 157.730469 224.34375 157.75 224.589844 157.800781 C 224.832031 157.851562 225.074219 157.9375 225.308594 158.050781 C 225.542969 158.164062 225.765625 158.308594 225.980469 158.480469 C 226.195312 158.65625 226.398438 158.855469 226.582031 159.082031 C 226.769531 159.304688 226.941406 159.554688 227.09375 159.820312 C 227.246094 160.089844 227.375 160.375 227.488281 160.679688 C 227.597656 160.980469 227.6875 161.292969 227.753906 161.617188 C 227.820312 161.941406 227.859375 162.269531 227.878906 162.601562 Z M 227.878906 162.601562 " fill-opacity="1" fill-rule="nonzero"/><path fill="#2e2c3f" d="M 243.113281 182.667969 C 242.78125 182.667969 242.492188 182.425781 242.433594 182.089844 C 242.371094 181.710938 242.628906 181.363281 243.007812 181.304688 L 246.308594 180.773438 L 244.535156 171.539062 C 244.460938 171.164062 244.703125 170.8125 245.082031 170.738281 C 245.445312 170.679688 245.808594 170.90625 245.882812 171.285156 L 247.792969 181.199219 C 247.820312 181.378906 247.792969 181.578125 247.683594 181.726562 C 247.578125 181.878906 247.414062 181.984375 247.230469 182.015625 L 243.234375 182.652344 C 243.234375 182.652344 243.160156 182.652344 243.128906 182.652344 Z M 243.113281 182.667969 " fill-opacity="1" fill-rule="nonzero"/><path fill="#2e2c3f" d="M 229.292969 145.992188 C 229.292969 145.992188 219.683594 138.421875 213.644531 149.667969 Z M 229.292969 145.992188 " fill-opacity="1" fill-rule="nonzero"/><path fill="#2e2c3f" d="M 242.855469 225.625 C 228.355469 225.625 208.375 211.773438 194.859375 197.878906 C 194.601562 197.605469 194.601562 197.167969 194.859375 196.910156 C 195.132812 196.652344 195.570312 196.652344 195.828125 196.910156 C 209.316406 210.773438 229.28125 224.5625 243.371094 224.230469 C 243.78125 224.183594 244.066406 224.519531 244.066406 224.898438 C 244.066406 225.273438 243.78125 225.59375 243.402344 225.59375 C 243.21875 225.59375 243.023438 225.59375 242.84375 225.59375 Z M 242.855469 225.625 " fill-opacity="1" fill-rule="nonzero"/><path fill="#efb098" d="M 183.28125 181.878906 C 171.578125 179.894531 160.4375 154.105469 168.097656 148.910156 C 175.742188 143.71875 180.496094 152.921875 180.496094 152.921875 L 183.28125 181.863281 Z M 183.28125 181.878906 " fill-opacity="1" fill-rule="nonzero"/><path fill="#2e2c3f" d="M 180.011719 168.863281 C 179.675781 168.863281 179.375 168.621094 179.328125 168.269531 C 178.585938 163.050781 176.453125 154.710938 173.878906 154.527344 C 171.445312 154.375 171.019531 159.007812 171.003906 159.054688 C 170.972656 159.433594 170.625 159.703125 170.261719 159.675781 C 169.882812 159.644531 169.613281 159.3125 169.640625 158.933594 C 169.65625 158.691406 170.1875 152.921875 173.972656 153.164062 C 178.390625 153.46875 180.34375 165.636719 180.675781 168.074219 C 180.738281 168.453125 180.464844 168.800781 180.101562 168.847656 C 180.070312 168.847656 180.039062 168.847656 180.011719 168.847656 Z M 180.011719 168.863281 " fill-opacity="1" fill-rule="nonzero"/><path fill="#2e2c3f" d="M 177.574219 159.339844 C 177.363281 159.339844 177.164062 159.25 177.027344 159.070312 C 176.710938 158.628906 175.636719 157.507812 174.605469 157.507812 C 174.03125 157.507812 173.515625 157.859375 173.019531 158.554688 C 172.789062 158.855469 172.367188 158.933594 172.0625 158.707031 C 171.761719 158.476562 171.6875 158.054688 171.914062 157.75 C 172.683594 156.691406 173.59375 156.148438 174.621094 156.148438 C 176.558594 156.148438 178.089844 158.175781 178.148438 158.265625 C 178.375 158.570312 178.316406 158.992188 178.011719 159.21875 C 177.890625 159.3125 177.738281 159.355469 177.605469 159.355469 Z M 177.574219 159.339844 " fill-opacity="1" fill-rule="nonzero"/><path fill="#2e2c3f" d="M 254.269531 101.898438 C 254.042969 101.898438 253.816406 101.777344 253.679688 101.566406 C 241.238281 80.554688 216.035156 73.878906 215.792969 73.804688 C 215.429688 73.714844 215.203125 73.335938 215.292969 72.972656 C 215.382812 72.609375 215.761719 72.382812 216.125 72.472656 C 216.382812 72.535156 242.117188 79.34375 254.859375 100.855469 C 255.058594 101.1875 254.949219 101.59375 254.617188 101.792969 C 254.511719 101.851562 254.390625 101.882812 254.269531 101.882812 Z M 254.269531 101.898438 " fill-opacity="1" fill-rule="nonzero"/><path fill="#2e2c3f" d="M 184.265625 143.582031 C 184.144531 143.582031 184.023438 143.554688 183.914062 143.492188 C 183.597656 143.296875 183.492188 142.871094 183.671875 142.554688 C 188.019531 135.320312 193.527344 128.582031 212.871094 125.554688 C 231.867188 122.589844 238.269531 106.953125 238.347656 106.789062 C 238.484375 106.4375 238.875 106.257812 239.238281 106.410156 C 239.585938 106.546875 239.769531 106.9375 239.617188 107.300781 C 239.558594 107.46875 232.882812 123.832031 213.082031 126.917969 C 194.300781 129.855469 189.183594 136.0625 184.855469 143.265625 C 184.71875 143.476562 184.492188 143.597656 184.265625 143.597656 Z M 184.265625 143.582031 " fill-opacity="1" fill-rule="nonzero"/><path fill="#2e2c3f" d="M 190.621094 128.402344 C 190.453125 128.402344 190.289062 128.339844 190.152344 128.21875 C 189.878906 127.964844 189.863281 127.523438 190.121094 127.25 C 190.332031 127.023438 195.328125 121.832031 206.242188 121.136719 C 216.609375 120.46875 222.648438 115.277344 222.710938 115.234375 C 222.996094 114.992188 223.421875 115.007812 223.679688 115.292969 C 223.9375 115.582031 223.90625 116.003906 223.617188 116.261719 C 223.359375 116.488281 217.199219 121.816406 206.332031 122.5 C 196.011719 123.164062 191.179688 128.128906 191.136719 128.175781 C 191 128.3125 190.816406 128.386719 190.636719 128.386719 Z M 190.621094 128.402344 " fill-opacity="1" fill-rule="nonzero"/><path fill="#00c950" d="M 312.53125 244.953125 C 312.53125 244.953125 308.835938 283.792969 303.386719 327.277344 C 297.953125 370.78125 275.75 384.8125 267.589844 414.722656 C 266.742188 417.871094 266 421.140625 265.363281 424.484375 L 85.558594 444.660156 C 98.015625 414.511719 116.863281 380.226562 118.4375 353.238281 C 120.796875 312.460938 100.074219 256.0625 100.074219 256.0625 L 184.671875 225.488281 C 244.476562 291.074219 243.355469 226.578125 243.355469 226.578125 C 243.355469 226.578125 306.050781 242.925781 312.515625 244.96875 Z M 312.53125 244.953125 " fill-opacity="1" fill-rule="nonzero"/><path fill="#2e2c3f" d="M 21.972656 453.910156 C 21.515625 453.910156 21.140625 453.578125 21.078125 453.109375 C 21.019531 452.609375 21.382812 452.167969 21.867188 452.109375 L 484.160156 400.25 C 484.644531 400.191406 485.101562 400.554688 485.160156 401.039062 C 485.222656 401.523438 484.859375 401.976562 484.375 402.039062 L 22.078125 453.894531 C 22.078125 453.894531 22.015625 453.894531 21.972656 453.894531 Z M 21.972656 453.910156 " fill-opacity="1" fill-rule="nonzero"/><path fill="#efb098" d="M 100.105469 256.0625 C 100.105469 256.0625 75.644531 262.511719 86.511719 336.921875 C 97.382812 411.332031 109.671875 496.398438 149.359375 483.351562 C 171.035156 476.238281 199.429688 346.972656 202.15625 324.207031 L 173.746094 312.628906 L 141.5625 380.484375 C 141.5625 380.484375 132.710938 293.765625 122.175781 274.742188 C 111.640625 255.714844 100.089844 256.046875 100.089844 256.046875 Z M 100.105469 256.0625 " fill-opacity="1" fill-rule="nonzero"/><path fill="#00c950" d="M 100.105469 256.0625 C 100.105469 256.0625 70.921875 263.722656 82.488281 328.945312 C 94.066406 394.167969 93.007812 404.6875 94.066406 422.578125 C 94.71875 433.582031 100.195312 447.824219 106.160156 455.015625 C 111.109375 460.980469 113.320312 470 121.417969 472.027344 C 121.417969 472.027344 122.476562 402.597656 142.988281 378.394531 C 142.988281 378.394531 143.910156 346.167969 140.351562 334.605469 C 136.796875 323.027344 129.695312 280.824219 122.339844 269.777344 C 114.96875 258.726562 105.628906 255.382812 100.105469 256.078125 Z M 100.105469 256.0625 " fill-opacity="1" fill-rule="nonzero"/><path fill="#2e2c3f" d="M 142.972656 379.074219 C 142.609375 379.074219 142.304688 378.804688 142.289062 378.441406 C 142.261719 377.957031 139.019531 329.699219 128.636719 293.886719 C 128.53125 293.523438 128.742188 293.148438 129.105469 293.039062 C 129.46875 292.949219 129.847656 293.148438 129.953125 293.511719 C 140.367188 329.457031 143.621094 377.863281 143.652344 378.347656 C 143.683594 378.726562 143.394531 379.046875 143.015625 379.074219 C 143.015625 379.074219 142.988281 379.074219 142.972656 379.074219 Z M 142.972656 379.074219 " fill-opacity="1" fill-rule="nonzero"/><path fill="#2e2c3f" d="M 118.074219 411.679688 C 118.074219 411.679688 117.964844 411.679688 117.921875 411.664062 C 117.558594 411.574219 117.316406 411.210938 117.40625 410.847656 C 125.519531 375.941406 142.335938 377.609375 143.0625 377.714844 C 143.441406 377.757812 143.699219 378.105469 143.652344 378.46875 C 143.609375 378.847656 143.273438 379.105469 142.894531 379.074219 C 142.746094 379.046875 126.550781 377.5625 118.753906 411.164062 C 118.679688 411.484375 118.390625 411.695312 118.085938 411.695312 Z M 118.074219 411.679688 " fill-opacity="1" fill-rule="nonzero"/><path fill="#efb098" d="M 199.082031 323.570312 C 199.082031 323.570312 202.867188 302.578125 199.308594 288.273438 C 195.753906 273.96875 201.324219 251.628906 201.820312 245.527344 C 202.320312 239.441406 192.589844 241.457031 189.5625 249.8125 C 186.535156 258.167969 171.867188 283.851562 171.867188 283.851562 L 186.851562 321.574219 Z M 199.082031 323.570312 " fill-opacity="1" fill-rule="nonzero"/><path fill="#efb098" d="M 201.898438 325.523438 C 201.898438 325.523438 204.152344 317.789062 200.945312 310.703125 C 197.734375 303.621094 190.453125 296.929688 192.558594 291.511719 C 194.648438 286.09375 199.992188 281.144531 201.277344 280.78125 C 207.105469 279.144531 214.234375 284.382812 216.019531 277.664062 C 216.019531 277.664062 211.117188 272.121094 204.015625 271.941406 C 196.917969 271.742188 183.613281 279.492188 183.613281 279.492188 C 183.613281 279.492188 195.796875 268.503906 196.628906 268.003906 C 197.464844 267.503906 204.984375 266.792969 208.074219 267.703125 C 211.144531 268.609375 218.640625 271.410156 221.195312 264.464844 C 221.195312 264.464844 214.402344 260.210938 206.136719 258.058594 C 197.871094 255.910156 193.042969 255.941406 189.910156 256.699219 C 186.777344 257.46875 177.90625 266.355469 177.90625 266.355469 C 177.90625 266.355469 185.488281 254.335938 186.203125 253.003906 C 186.914062 251.6875 197.355469 246.222656 199.15625 245.921875 C 200.960938 245.617188 214.066406 245.359375 211.417969 237.429688 L 196.675781 236.339844 C 196.675781 236.339844 205.320312 231.585938 201.519531 227.03125 C 201.519531 227.03125 174.335938 238.414062 170.808594 243.074219 C 167.265625 247.738281 156.261719 271.773438 155.382812 277.464844 C 154.492188 283.15625 162.46875 296.929688 165.875 305.390625 C 169.265625 313.839844 171.714844 322.542969 172.367188 327.855469 L 201.941406 325.523438 Z M 201.898438 325.523438 " fill-opacity="1" fill-rule="nonzero"/><path fill="#2e2c3f" d="M 159.0625 274.5 C 158.941406 274.5 158.835938 274.46875 158.730469 274.40625 C 158.394531 274.226562 158.273438 273.800781 158.472656 273.46875 C 159.078125 272.378906 173.457031 246.648438 176.121094 243.710938 C 178.828125 240.746094 194.664062 236.171875 196.464844 235.660156 C 196.828125 235.550781 197.207031 235.765625 197.3125 236.128906 C 197.417969 236.492188 197.207031 236.871094 196.84375 236.976562 C 192.058594 238.335938 179.207031 242.347656 177.132812 244.621094 C 174.578125 247.449219 159.820312 273.863281 159.667969 274.121094 C 159.546875 274.347656 159.304688 274.46875 159.0625 274.46875 Z M 159.0625 274.5 " fill-opacity="1" fill-rule="nonzero"/><path fill="#2e2c3f" d="M 165.675781 280.945312 C 165.511719 280.945312 165.359375 280.886719 165.222656 280.78125 C 164.933594 280.523438 164.90625 280.097656 165.160156 279.8125 L 177.363281 265.902344 C 177.617188 265.613281 178.042969 265.582031 178.332031 265.839844 C 178.617188 266.097656 178.648438 266.523438 178.390625 266.808594 L 166.191406 280.71875 C 166.054688 280.871094 165.875 280.945312 165.675781 280.945312 Z M 165.675781 280.945312 " fill-opacity="1" fill-rule="nonzero"/><path fill="#2e2c3f" d="M 174.683594 287.515625 C 174.484375 287.515625 174.289062 287.425781 174.152344 287.257812 C 173.910156 286.972656 173.957031 286.53125 174.242188 286.289062 L 183.144531 278.949219 C 183.429688 278.707031 183.871094 278.75 184.113281 279.039062 C 184.355469 279.328125 184.308594 279.765625 184.023438 280.007812 L 175.121094 287.347656 C 175 287.457031 174.832031 287.5 174.683594 287.5 Z M 174.683594 287.515625 " fill-opacity="1" fill-rule="nonzero"/><path fill="#efb098" d="M 312.015625 254.941406 C 312.015625 254.941406 329.105469 263.523438 339.289062 303.273438 C 349.476562 343.019531 358.316406 406.5625 358.316406 406.5625 L 423.554688 443.601562 L 408.601562 477.582031 C 408.601562 477.582031 328.074219 450.746094 314.148438 428.996094 C 300.222656 407.246094 292.019531 338.070312 292.019531 338.070312 L 306.671875 261.84375 L 312.015625 254.957031 Z M 312.015625 254.941406 " fill-opacity="1" fill-rule="nonzero"/><path fill="#00c950" d="M 312.53125 244.953125 C 312.53125 244.953125 337.777344 251.792969 344.269531 303.695312 C 349.886719 348.605469 360.40625 404.6875 360.40625 404.6875 C 360.40625 404.6875 322.1875 409.953125 314.816406 433.792969 C 314.816406 433.792969 293.425781 382.238281 292.019531 352.4375 C 290.613281 322.632812 291.324219 286.863281 291.324219 286.863281 L 312.546875 244.953125 Z M 312.53125 244.953125 " fill-opacity="1" fill-rule="nonzero"/><path fill="#2e2c3f" d="M 294.5625 360.925781 C 294.472656 360.925781 294.382812 360.914062 294.289062 360.867188 C 293.941406 360.714844 293.789062 360.308594 293.925781 359.957031 C 298.347656 349.695312 301.222656 338.980469 302.691406 327.203125 C 308.125 283.714844 308.867188 277.996094 308.867188 277.996094 C 308.914062 277.617188 309.261719 277.359375 309.640625 277.40625 C 310.015625 277.449219 310.273438 277.796875 310.230469 278.175781 C 310.230469 278.175781 309.488281 283.898438 304.054688 327.371094 C 302.570312 339.28125 299.664062 350.121094 295.183594 360.503906 C 295.078125 360.761719 294.820312 360.914062 294.546875 360.914062 Z M 294.5625 360.925781 " fill-opacity="1" fill-rule="nonzero"/><g clip-path="url(#59301648d6)"><path fill="#2e2c3f" d="M 195.34375 466.367188 L 194.390625 469.046875 C 193.496094 471.558594 194.480469 474.359375 196.738281 475.765625 L 261.1875 499.230469 L 271.191406 499.230469 C 271.191406 499.230469 277.246094 492.976562 277.246094 492.976562 L 205.636719 468.003906 L 195.34375 466.382812 Z M 195.34375 466.367188 " fill-opacity="1" fill-rule="nonzero"/></g><path fill="#2e2c3f" d="M 267.46875 491.480469 L 195.34375 466.367188 L 308.867188 457.027344 Z M 267.46875 491.480469 " fill-opacity="1" fill-rule="nonzero"/><path fill="#ffffff" d="M 195.121094 466.992188 L 195.554688 465.683594 L 268.382812 489.824219 L 267.949219 491.132812 Z M 195.121094 466.992188 " fill-opacity="1" fill-rule="nonzero"/><path fill="#2e2c3f" d="M 468.917969 479.128906 L 266.773438 495.382812 L 306.550781 373.460938 C 307.324219 371.070312 309.546875 369.464844 312.0625 369.464844 L 502.007812 353.207031 C 505.957031 353.207031 508.742188 357.050781 507.515625 360.804688 Z M 468.917969 479.128906 " fill-opacity="1" fill-rule="nonzero"/><g clip-path="url(#067357c54d)"><path fill="#2e2c3f" d="M 468.917969 479.128906 L 271.191406 499.242188 L 310.773438 377.925781 C 311.667969 375.1875 314.226562 373.324219 317.117188 373.324219 L 505.214844 357.066406 C 509.757812 357.066406 512.964844 361.503906 511.558594 365.816406 Z M 468.917969 479.128906 " fill-opacity="1" fill-rule="nonzero"/></g><path fill="#ffffff" d="M 403.695312 414.535156 C 404.355469 414.699219 404.988281 414.9375 405.597656 415.253906 C 406.207031 415.570312 406.777344 415.957031 407.3125 416.414062 C 407.847656 416.871094 408.332031 417.386719 408.773438 417.96875 C 409.210938 418.550781 409.59375 419.179688 409.921875 419.863281 C 410.25 420.542969 410.515625 421.265625 410.714844 422.019531 C 410.917969 422.777344 411.054688 423.558594 411.125 424.363281 C 411.195312 425.164062 411.199219 425.976562 411.132812 426.792969 C 411.070312 427.613281 410.9375 428.421875 410.742188 429.222656 C 410.542969 430.027344 410.28125 430.804688 409.960938 431.558594 C 409.636719 432.3125 409.257812 433.03125 408.824219 433.710938 C 408.390625 434.386719 407.90625 435.015625 407.375 435.59375 C 406.84375 436.167969 406.277344 436.683594 405.667969 437.136719 C 405.0625 437.585938 404.429688 437.96875 403.773438 438.28125 C 403.113281 438.589844 402.441406 438.824219 401.757812 438.980469 C 401.070312 439.136719 400.386719 439.214844 399.699219 439.210938 C 399.011719 439.207031 398.339844 439.125 397.679688 438.960938 C 397.019531 438.800781 396.386719 438.5625 395.777344 438.246094 C 395.167969 437.929688 394.597656 437.542969 394.0625 437.085938 C 393.527344 436.628906 393.042969 436.109375 392.601562 435.53125 C 392.164062 434.949219 391.78125 434.316406 391.453125 433.636719 C 391.125 432.953125 390.859375 432.234375 390.65625 431.476562 C 390.457031 430.71875 390.320312 429.941406 390.25 429.136719 C 390.179688 428.332031 390.175781 427.523438 390.242188 426.703125 C 390.304688 425.886719 390.4375 425.078125 390.632812 424.273438 C 390.832031 423.472656 391.089844 422.695312 391.414062 421.9375 C 391.734375 421.183594 392.113281 420.46875 392.550781 419.789062 C 392.984375 419.109375 393.46875 418.484375 394 417.90625 C 394.53125 417.328125 395.097656 416.816406 395.703125 416.363281 C 396.3125 415.910156 396.945312 415.53125 397.601562 415.21875 C 398.261719 414.910156 398.933594 414.675781 399.617188 414.519531 C 400.304688 414.363281 400.988281 414.285156 401.675781 414.289062 C 402.359375 414.289062 403.035156 414.371094 403.695312 414.535156 Z M 403.695312 414.535156 " fill-opacity="1" fill-rule="nonzero"/><g clip-path="url(#0a7abfe47c)"><path fill="#ffffff" d="M 271.84375 499.457031 L 270.542969 499.03125 L 310.125 377.714844 C 311.105469 374.671875 313.921875 372.644531 317.117188 372.644531 L 505.15625 356.386719 L 505.277344 357.75 L 317.175781 374.003906 C 314.511719 374.003906 312.226562 375.671875 311.425781 378.136719 Z M 271.84375 499.457031 " fill-opacity="1" fill-rule="nonzero"/></g><path fill="#2e2c3f" d="M 107.203125 456.742188 C 106.839844 456.742188 106.539062 456.453125 106.523438 456.089844 C 106.523438 455.96875 105.871094 444.207031 111.320312 431.75 C 111.472656 431.402344 111.867188 431.234375 112.230469 431.402344 C 112.578125 431.554688 112.730469 431.960938 112.578125 432.3125 C 107.28125 444.449219 107.886719 455.910156 107.902344 456.015625 C 107.914062 456.394531 107.644531 456.710938 107.265625 456.742188 C 107.265625 456.742188 107.234375 456.742188 107.21875 456.742188 Z M 107.203125 456.742188 " fill-opacity="1" fill-rule="nonzero"/><path fill="#ffffff" d="M 232.804688 195.394531 C 232.804688 195.394531 241.296875 206.898438 250.167969 195.757812 Z M 232.804688 195.394531 " fill-opacity="1" fill-rule="nonzero"/><path fill="#00c950" d="M 363.371094 68.507812 L 629.546875 68.507812 L 629.546875 70.882812 L 363.371094 70.882812 Z M 363.371094 68.507812 " fill-opacity="1" fill-rule="nonzero"/><path fill="#00c950" d="M 581.292969 90.199219 L 629.546875 90.199219 L 629.546875 92.574219 L 581.292969 92.574219 Z M 581.292969 90.199219 " fill-opacity="1" fill-rule="nonzero"/><path fill="#00c950" d="M 363.371094 90.199219 L 563.339844 90.199219 L 563.339844 92.574219 L 363.371094 92.574219 Z M 363.371094 90.199219 " fill-opacity="1" fill-rule="nonzero"/><path fill="#00c950" d="M 466.558594 111.875 L 583.652344 111.875 L 583.652344 114.25 L 466.558594 114.25 Z M 466.558594 111.875 " fill-opacity="1" fill-rule="nonzero"/><path fill="#00c950" d="M 363.371094 111.875 L 448.589844 111.875 L 448.589844 114.25 L 363.371094 114.25 Z M 363.371094 111.875 " fill-opacity="1" fill-rule="nonzero"/><path fill="#ffffff" d="M 372.878906 145.898438 L 686.398438 145.898438 C 687.027344 145.898438 687.652344 145.960938 688.269531 146.082031 C 688.886719 146.207031 689.484375 146.386719 690.066406 146.628906 C 690.648438 146.871094 691.199219 147.164062 691.722656 147.515625 C 692.246094 147.863281 692.730469 148.261719 693.171875 148.707031 C 693.617188 149.152344 694.015625 149.636719 694.367188 150.15625 C 694.714844 150.679688 695.011719 151.234375 695.25 151.816406 C 695.492188 152.394531 695.671875 152.996094 695.796875 153.613281 C 695.917969 154.230469 695.980469 154.851562 695.980469 155.480469 L 695.980469 253.367188 C 695.980469 253.996094 695.917969 254.621094 695.796875 255.238281 C 695.671875 255.855469 695.492188 256.453125 695.25 257.035156 C 695.011719 257.617188 694.714844 258.167969 694.367188 258.691406 C 694.015625 259.214844 693.617188 259.699219 693.171875 260.144531 C 692.730469 260.589844 692.246094 260.984375 691.722656 261.335938 C 691.199219 261.683594 690.648438 261.980469 690.066406 262.21875 C 689.484375 262.460938 688.886719 262.644531 688.269531 262.765625 C 687.652344 262.886719 687.027344 262.949219 686.398438 262.949219 L 372.878906 262.949219 C 372.25 262.949219 371.625 262.886719 371.007812 262.765625 C 370.390625 262.644531 369.792969 262.460938 369.210938 262.21875 C 368.628906 261.980469 368.078125 261.683594 367.554688 261.335938 C 367.03125 260.984375 366.546875 260.589844 366.101562 260.144531 C 365.660156 259.699219 365.261719 259.214844 364.910156 258.691406 C 364.5625 258.167969 364.265625 257.617188 364.027344 257.035156 C 363.785156 256.453125 363.605469 255.855469 363.480469 255.238281 C 363.359375 254.621094 363.296875 253.996094 363.296875 253.367188 L 363.296875 155.480469 C 363.296875 154.851562 363.359375 154.230469 363.480469 153.613281 C 363.605469 152.996094 363.785156 152.394531 364.027344 151.8125 C 364.265625 151.234375 364.5625 150.679688 364.910156 150.15625 C 365.261719 149.636719 365.660156 149.152344 366.101562 148.707031 C 366.546875 148.261719 367.03125 147.863281 367.554688 147.515625 C 368.078125 147.164062 368.628906 146.871094 369.210938 146.628906 C 369.792969 146.386719 370.390625 146.207031 371.007812 146.082031 C 371.625 145.960938 372.25 145.898438 372.878906 145.898438 Z M 372.878906 145.898438 " fill-opacity="1" fill-rule="nonzero"/><g clip-path="url(#d962af0ae7)"><path fill="#00c950" d="M 686.398438 264.144531 L 372.863281 264.144531 C 366.929688 264.144531 362.101562 259.316406 362.101562 253.382812 L 362.101562 155.496094 C 362.101562 149.5625 366.929688 144.734375 372.863281 144.734375 L 686.398438 144.734375 C 692.332031 144.734375 697.160156 149.5625 697.160156 155.496094 L 697.160156 253.382812 C 697.160156 259.316406 692.332031 264.144531 686.398438 264.144531 Z M 372.878906 147.09375 C 368.246094 147.09375 364.492188 150.863281 364.492188 155.480469 L 364.492188 253.367188 C 364.492188 258 368.261719 261.753906 372.878906 261.753906 L 686.414062 261.753906 C 691.046875 261.753906 694.800781 257.984375 694.800781 253.367188 L 694.800781 155.480469 C 694.800781 150.847656 691.03125 147.09375 686.414062 147.09375 Z M 372.878906 147.09375 " fill-opacity="1" fill-rule="nonzero"/></g><path fill="#00c950" d="M 556.753906 430.101562 C 556.753906 430.101562 550.335938 434.398438 552.699219 448.414062 C 555.058594 462.433594 562.160156 473.574219 562.160156 473.574219 L 588.828125 473.574219 C 588.828125 473.574219 595.929688 462.433594 598.289062 448.414062 C 600.652344 434.398438 594.234375 430.101562 594.234375 430.101562 Z M 556.753906 430.101562 " fill-opacity="1" fill-rule="nonzero"/><path fill="#00c950" d="M 594.234375 430.101562 C 594.234375 430.261719 594.113281 430.421875 593.875 430.578125 C 593.632812 430.738281 593.277344 430.890625 592.808594 431.039062 C 592.335938 431.1875 591.757812 431.328125 591.074219 431.464844 C 590.390625 431.597656 589.613281 431.722656 588.746094 431.835938 C 587.875 431.949219 586.929688 432.050781 585.90625 432.140625 C 584.882812 432.230469 583.800781 432.304688 582.664062 432.367188 C 581.527344 432.429688 580.355469 432.472656 579.148438 432.503906 C 577.941406 432.535156 576.726562 432.554688 575.496094 432.554688 C 574.265625 432.554688 573.046875 432.535156 571.839844 432.503906 C 570.632812 432.472656 569.460938 432.429688 568.324219 432.367188 C 567.1875 432.304688 566.105469 432.230469 565.082031 432.140625 C 564.058594 432.050781 563.113281 431.949219 562.242188 431.835938 C 561.375 431.722656 560.597656 431.597656 559.914062 431.464844 C 559.230469 431.328125 558.652344 431.1875 558.183594 431.039062 C 557.710938 430.890625 557.355469 430.738281 557.117188 430.578125 C 556.875 430.421875 556.753906 430.261719 556.753906 430.101562 C 556.753906 429.941406 556.875 429.78125 557.117188 429.621094 C 557.355469 429.464844 557.710938 429.3125 558.183594 429.164062 C 558.652344 429.011719 559.230469 428.871094 559.914062 428.738281 C 560.597656 428.605469 561.375 428.480469 562.242188 428.367188 C 563.113281 428.253906 564.058594 428.152344 565.082031 428.0625 C 566.105469 427.972656 567.1875 427.898438 568.324219 427.835938 C 569.460938 427.773438 570.632812 427.726562 571.839844 427.695312 C 573.046875 427.664062 574.265625 427.648438 575.496094 427.648438 C 576.726562 427.648438 577.941406 427.664062 579.148438 427.695312 C 580.355469 427.726562 581.527344 427.773438 582.664062 427.835938 C 583.800781 427.898438 584.882812 427.972656 585.90625 428.0625 C 586.929688 428.152344 587.875 428.253906 588.746094 428.367188 C 589.613281 428.480469 590.390625 428.605469 591.074219 428.738281 C 591.757812 428.871094 592.335938 429.011719 592.808594 429.164062 C 593.277344 429.3125 593.632812 429.464844 593.875 429.621094 C 594.113281 429.78125 594.234375 429.941406 594.234375 430.101562 Z M 594.234375 430.101562 " fill-opacity="1" fill-rule="nonzero"/><path fill="#2e2c3f" d="M 593.039062 430.101562 C 593.039062 430.214844 592.925781 430.332031 592.699219 430.441406 C 592.476562 430.554688 592.144531 430.667969 591.703125 430.773438 C 591.261719 430.878906 590.722656 430.980469 590.082031 431.074219 C 589.441406 431.171875 588.714844 431.261719 587.898438 431.34375 C 587.085938 431.421875 586.199219 431.496094 585.242188 431.5625 C 584.28125 431.625 583.273438 431.679688 582.207031 431.722656 C 581.144531 431.765625 580.046875 431.800781 578.917969 431.824219 C 577.785156 431.84375 576.644531 431.855469 575.496094 431.855469 C 574.34375 431.855469 573.203125 431.84375 572.070312 431.824219 C 570.941406 431.800781 569.84375 431.765625 568.78125 431.722656 C 567.714844 431.679688 566.707031 431.625 565.746094 431.5625 C 564.789062 431.496094 563.902344 431.421875 563.089844 431.34375 C 562.273438 431.261719 561.546875 431.171875 560.90625 431.074219 C 560.269531 430.980469 559.726562 430.878906 559.285156 430.773438 C 558.847656 430.667969 558.511719 430.554688 558.289062 430.441406 C 558.0625 430.332031 557.953125 430.214844 557.953125 430.101562 C 557.953125 429.984375 558.0625 429.871094 558.289062 429.757812 C 558.511719 429.644531 558.847656 429.535156 559.285156 429.429688 C 559.726562 429.324219 560.269531 429.222656 560.90625 429.125 C 561.546875 429.03125 562.273438 428.941406 563.089844 428.859375 C 563.902344 428.777344 564.789062 428.703125 565.746094 428.640625 C 566.707031 428.578125 567.714844 428.523438 568.78125 428.476562 C 569.84375 428.433594 570.941406 428.402344 572.070312 428.378906 C 573.203125 428.355469 574.34375 428.34375 575.496094 428.34375 C 576.644531 428.34375 577.785156 428.355469 578.917969 428.378906 C 580.046875 428.402344 581.144531 428.433594 582.207031 428.480469 C 583.273438 428.523438 584.28125 428.578125 585.242188 428.640625 C 586.199219 428.703125 587.085938 428.777344 587.898438 428.859375 C 588.714844 428.941406 589.441406 429.03125 590.082031 429.125 C 590.722656 429.222656 591.261719 429.324219 591.703125 429.429688 C 592.144531 429.535156 592.476562 429.644531 592.699219 429.757812 C 592.925781 429.871094 593.039062 429.984375 593.039062 430.101562 Z M 593.039062 430.101562 " fill-opacity="1" fill-rule="nonzero"/><path fill="#00c950" d="M 568.199219 385.796875 C 569.046875 386.113281 572.011719 379.695312 572.285156 379.0625 C 574.8125 373.21875 575.480469 366.589844 574.40625 360.292969 C 573.375 354.222656 571.074219 348.0625 567.925781 343.1875 C 565.292969 339.117188 561.707031 334.953125 557.347656 333.742188 C 554.894531 333.0625 552.367188 333.742188 550.609375 336.117188 C 549.066406 338.207031 548.308594 341.128906 548.050781 343.824219 C 547.25 352.449219 549.277344 360.792969 551.972656 368.554688 C 554.015625 374.445312 556.816406 380.679688 561.933594 383.375 C 563.929688 384.433594 566.09375 385.039062 568.183594 385.796875 Z M 568.199219 385.796875 " fill-opacity="1" fill-rule="nonzero"/><path fill="#2e2c3f" d="M 574.175781 430.296875 L 573.722656 430.296875 C 572.785156 418.023438 569.289062 380.726562 561.039062 356.445312 L 561.476562 356.3125 C 569.757812 380.664062 573.222656 418.066406 574.191406 430.296875 Z M 574.175781 430.296875 " fill-opacity="1" fill-rule="nonzero"/><path fill="#00c950" d="M 581.09375 387.355469 C 580.519531 387.613281 578.324219 383.40625 578.128906 382.996094 C 576.25 379.152344 575.660156 374.671875 576.265625 370.328125 C 576.855469 366.132812 578.324219 361.804688 580.382812 358.308594 C 582.125 355.386719 584.515625 352.34375 587.511719 351.269531 C 589.191406 350.664062 590.964844 350.996094 592.21875 352.511719 C 593.339844 353.84375 593.914062 355.796875 594.140625 357.613281 C 594.882812 363.441406 593.644531 369.238281 591.949219 374.6875 C 590.660156 378.820312 588.84375 383.222656 585.363281 385.34375 C 584 386.175781 582.519531 386.703125 581.09375 387.355469 Z M 581.09375 387.355469 " fill-opacity="1" fill-rule="nonzero"/><path fill="#00c950" d="M 591.492188 404.550781 C 590.871094 404.550781 590.175781 399.675781 590.132812 399.207031 C 589.617188 394.832031 590.496094 390.414062 592.433594 386.644531 C 594.308594 383.011719 597.046875 379.621094 600.074219 377.289062 C 602.617188 375.335938 605.796875 373.550781 608.929688 373.867188 C 610.6875 374.050781 612.214844 375.125 612.894531 377.078125 C 613.5 378.804688 613.425781 380.863281 613.0625 382.664062 C 611.898438 388.398438 608.898438 393.242188 605.601562 397.558594 C 603.089844 400.828125 600.015625 404.125 596.109375 404.582031 C 594.582031 404.761719 593.039062 404.609375 591.507812 404.582031 Z M 591.492188 404.550781 " fill-opacity="1" fill-rule="nonzero"/><path fill="#2e2c3f" d="M 586.558594 367.148438 C 579.371094 388.855469 576.507812 417.765625 575.539062 430.296875 L 575.101562 430.296875 C 576.039062 417.792969 578.929688 388.777344 586.136719 367.011719 L 586.542969 367.148438 Z M 586.558594 367.148438 " fill-opacity="1" fill-rule="nonzero"/><path fill="#00c950" d="M 564.640625 414.78125 C 565.246094 414.601562 564.976562 409.695312 564.945312 409.210938 C 564.597656 404.808594 562.886719 400.734375 560.253906 397.585938 C 557.710938 394.546875 554.394531 391.988281 550.988281 390.519531 C 548.128906 389.292969 544.691406 388.414062 541.710938 389.550781 C 540.046875 390.1875 538.757812 391.640625 538.457031 393.726562 C 538.199219 395.574219 538.683594 397.558594 539.378906 399.207031 C 541.632812 404.476562 545.480469 408.394531 549.535156 411.710938 C 552.609375 414.222656 556.257812 416.613281 560.144531 416.007812 C 561.675781 415.765625 563.144531 415.222656 564.625 414.78125 Z M 564.640625 414.78125 " fill-opacity="1" fill-rule="nonzero"/><path fill="#2e2c3f" d="M 571.679688 430.296875 L 571.179688 430.296875 C 566.171875 415.933594 559.917969 407.925781 555.347656 403.65625 L 555.664062 403.308594 C 560.253906 407.625 566.640625 415.75 571.679688 430.296875 Z M 571.679688 430.296875 " fill-opacity="1" fill-rule="nonzero"/><path fill="#2e2c3f" d="M 600.847656 391.035156 C 590.796875 403.566406 582.183594 421.578125 578.308594 430.296875 L 577.808594 430.296875 C 581.671875 421.625 590.359375 403.386719 600.484375 390.761719 Z M 600.847656 391.035156 " fill-opacity="1" fill-rule="nonzero"/><path fill="#00c950" d="M 404.164062 200.890625 C 394.976562 200.890625 387.5 193.414062 387.5 184.226562 C 387.5 175.039062 394.976562 167.558594 404.164062 167.558594 C 413.351562 167.558594 420.832031 175.039062 420.832031 184.226562 C 420.832031 193.414062 413.351562 200.890625 404.164062 200.890625 Z M 404.164062 169.710938 C 396.160156 169.710938 389.648438 176.21875 389.648438 184.226562 C 389.648438 192.230469 396.160156 198.742188 404.164062 198.742188 C 412.171875 198.742188 418.679688 192.230469 418.679688 184.226562 C 418.679688 176.21875 412.171875 169.710938 404.164062 169.710938 Z M 404.164062 169.710938 " fill-opacity="1" fill-rule="nonzero"/><path fill="#00c950" d="M 496.285156 174.871094 L 525.4375 174.871094 L 525.4375 177.097656 L 496.285156 177.097656 Z M 496.285156 174.871094 " fill-opacity="1" fill-rule="nonzero"/><path fill="#00c950" d="M 470.597656 174.871094 L 491.820312 174.871094 L 491.820312 177.097656 L 470.597656 177.097656 Z M 470.597656 174.871094 " fill-opacity="1" fill-rule="nonzero"/><path fill="#00c950" d="M 490.230469 191.339844 L 513.328125 191.339844 L 513.328125 193.5625 L 490.230469 193.5625 Z M 490.230469 191.339844 " fill-opacity="1" fill-rule="nonzero"/><path fill="#00c950" d="M 470.597656 191.339844 L 485.765625 191.339844 L 485.765625 193.5625 L 470.597656 193.5625 Z M 470.597656 191.339844 " fill-opacity="1" fill-rule="nonzero"/><path fill="#00c950" d="M 451.753906 193.109375 L 450.558594 189.960938 L 440.371094 189.960938 L 439.175781 193.171875 C 438.707031 194.425781 438.3125 195.273438 437.980469 195.714844 C 437.648438 196.152344 437.101562 196.363281 436.359375 196.363281 C 435.726562 196.363281 435.164062 196.136719 434.664062 195.667969 C 434.179688 195.199219 433.921875 194.667969 433.921875 194.078125 C 433.921875 193.730469 433.984375 193.382812 434.089844 193.019531 C 434.210938 192.65625 434.394531 192.140625 434.648438 191.503906 L 441.066406 175.234375 C 441.25 174.765625 441.460938 174.203125 441.71875 173.554688 C 441.976562 172.902344 442.25 172.359375 442.535156 171.917969 C 442.824219 171.480469 443.203125 171.132812 443.6875 170.875 C 444.15625 170.601562 444.746094 170.464844 445.441406 170.464844 C 446.140625 170.464844 446.742188 170.601562 447.214844 170.875 C 447.683594 171.148438 448.0625 171.480469 448.363281 171.902344 C 448.652344 172.328125 448.894531 172.78125 449.105469 173.265625 C 449.300781 173.75 449.558594 174.402344 449.863281 175.203125 L 456.417969 191.371094 C 456.929688 192.59375 457.1875 193.488281 457.1875 194.046875 C 457.1875 194.609375 456.945312 195.167969 456.460938 195.652344 C 455.976562 196.136719 455.386719 196.378906 454.707031 196.378906 C 454.3125 196.378906 453.964844 196.304688 453.675781 196.167969 C 453.390625 196.03125 453.148438 195.835938 452.964844 195.59375 C 452.769531 195.351562 452.554688 194.972656 452.34375 194.457031 C 452.117188 193.957031 451.9375 193.503906 451.769531 193.109375 Z M 441.703125 186.148438 L 449.195312 186.148438 L 445.414062 175.808594 Z M 441.703125 186.148438 " fill-opacity="1" fill-rule="nonzero"/><path fill="#00c950" d="M 404.164062 244.695312 C 394.976562 244.695312 387.5 237.21875 387.5 228.03125 C 387.5 218.84375 394.976562 211.363281 404.164062 211.363281 C 413.351562 211.363281 420.832031 218.84375 420.832031 228.03125 C 420.832031 237.21875 413.351562 244.695312 404.164062 244.695312 Z M 404.164062 213.515625 C 396.160156 213.515625 389.648438 220.023438 389.648438 228.03125 C 389.648438 236.035156 396.160156 242.546875 404.164062 242.546875 C 412.171875 242.546875 418.679688 236.035156 418.679688 228.03125 C 418.679688 220.023438 412.171875 213.515625 404.164062 213.515625 Z M 404.164062 213.515625 " fill-opacity="1" fill-rule="nonzero"/><path fill="#00c950" d="M 496.285156 218.675781 L 525.4375 218.675781 L 525.4375 220.902344 L 496.285156 220.902344 Z M 496.285156 218.675781 " fill-opacity="1" fill-rule="nonzero"/><path fill="#00c950" d="M 470.597656 218.675781 L 491.820312 218.675781 L 491.820312 220.902344 L 470.597656 220.902344 Z M 470.597656 218.675781 " fill-opacity="1" fill-rule="nonzero"/><path fill="#00c950" d="M 490.230469 235.144531 L 513.328125 235.144531 L 513.328125 237.367188 L 490.230469 237.367188 Z M 490.230469 235.144531 " fill-opacity="1" fill-rule="nonzero"/><path fill="#00c950" d="M 470.597656 235.144531 L 485.765625 235.144531 L 485.765625 237.367188 L 470.597656 237.367188 Z M 470.597656 235.144531 " fill-opacity="1" fill-rule="nonzero"/><path fill="#00c950" d="M 446.425781 239.746094 L 438.765625 239.746094 C 437.664062 239.746094 436.875 239.503906 436.40625 239.003906 C 435.9375 238.503906 435.695312 237.71875 435.695312 236.640625 L 435.695312 217.8125 C 435.695312 216.707031 435.9375 215.90625 436.421875 215.421875 C 436.90625 214.9375 437.691406 214.695312 438.765625 214.695312 L 446.878906 214.695312 C 448.078125 214.695312 449.121094 214.769531 450 214.921875 C 450.875 215.074219 451.664062 215.359375 452.359375 215.769531 C 452.949219 216.117188 453.480469 216.570312 453.933594 217.117188 C 454.386719 217.660156 454.734375 218.25 454.976562 218.917969 C 455.21875 219.570312 455.339844 220.265625 455.339844 220.992188 C 455.339844 223.503906 454.085938 225.335938 451.585938 226.5 C 454.871094 227.546875 456.523438 229.589844 456.523438 232.617188 C 456.523438 234.023438 456.160156 235.28125 455.449219 236.398438 C 454.734375 237.519531 453.765625 238.351562 452.542969 238.882812 C 451.785156 239.199219 450.90625 239.425781 449.90625 239.5625 C 448.921875 239.699219 447.757812 239.761719 446.441406 239.761719 Z M 440.765625 218.507812 L 440.765625 224.988281 L 445.414062 224.988281 C 446.667969 224.988281 447.652344 224.867188 448.347656 224.625 C 449.046875 224.382812 449.558594 223.929688 449.921875 223.261719 C 450.210938 222.777344 450.347656 222.246094 450.347656 221.65625 C 450.347656 220.386719 449.894531 219.554688 449 219.128906 C 448.105469 218.722656 446.730469 218.507812 444.882812 218.507812 Z M 446.046875 228.621094 L 440.765625 228.621094 L 440.765625 235.929688 L 446.214844 235.929688 C 449.648438 235.929688 451.359375 234.691406 451.359375 232.222656 C 451.359375 230.953125 450.921875 230.042969 450.027344 229.46875 C 449.136719 228.894531 447.820312 228.621094 446.046875 228.621094 Z M 446.046875 228.621094 " fill-opacity="1" fill-rule="nonzero"/><path fill="#00c950" d="M 556.769531 200.890625 C 547.582031 200.890625 540.105469 193.414062 540.105469 184.226562 C 540.105469 175.039062 547.582031 167.558594 556.769531 167.558594 C 565.957031 167.558594 573.4375 175.039062 573.4375 184.226562 C 573.4375 193.414062 565.957031 200.890625 556.769531 200.890625 Z M 556.769531 169.710938 C 548.761719 169.710938 542.253906 176.21875 542.253906 184.226562 C 542.253906 192.230469 548.761719 198.742188 556.769531 198.742188 C 564.777344 198.742188 571.285156 192.230469 571.285156 184.226562 C 571.285156 176.21875 564.777344 169.710938 556.769531 169.710938 Z M 556.769531 169.710938 " fill-opacity="1" fill-rule="nonzero"/><path fill="#00c950" d="M 565.929688 184.226562 C 565.929688 184.828125 565.871094 185.421875 565.753906 186.011719 C 565.636719 186.601562 565.460938 187.175781 565.230469 187.730469 C 565 188.285156 564.71875 188.8125 564.386719 189.3125 C 564.050781 189.8125 563.671875 190.273438 563.246094 190.699219 C 562.820312 191.125 562.359375 191.503906 561.859375 191.839844 C 561.359375 192.171875 560.832031 192.457031 560.273438 192.683594 C 559.71875 192.914062 559.148438 193.089844 558.558594 193.207031 C 557.96875 193.324219 557.371094 193.382812 556.769531 193.382812 C 556.167969 193.382812 555.574219 193.324219 554.984375 193.207031 C 554.394531 193.089844 553.820312 192.914062 553.265625 192.683594 C 552.710938 192.457031 552.183594 192.171875 551.683594 191.839844 C 551.183594 191.503906 550.71875 191.125 550.296875 190.699219 C 549.871094 190.273438 549.492188 189.8125 549.15625 189.3125 C 548.824219 188.8125 548.539062 188.285156 548.308594 187.730469 C 548.082031 187.175781 547.90625 186.601562 547.789062 186.011719 C 547.671875 185.421875 547.613281 184.828125 547.613281 184.226562 C 547.613281 183.625 547.671875 183.027344 547.789062 182.4375 C 547.90625 181.847656 548.082031 181.277344 548.308594 180.71875 C 548.539062 180.164062 548.824219 179.636719 549.15625 179.136719 C 549.492188 178.636719 549.871094 178.175781 550.296875 177.75 C 550.71875 177.324219 551.183594 176.945312 551.683594 176.609375 C 552.183594 176.277344 552.710938 175.996094 553.265625 175.765625 C 553.820312 175.535156 554.394531 175.359375 554.984375 175.242188 C 555.574219 175.125 556.167969 175.066406 556.769531 175.066406 C 557.371094 175.066406 557.96875 175.125 558.558594 175.242188 C 559.148438 175.359375 559.71875 175.535156 560.273438 175.765625 C 560.832031 175.996094 561.359375 176.277344 561.859375 176.609375 C 562.359375 176.945312 562.820312 177.324219 563.246094 177.75 C 563.671875 178.175781 564.050781 178.636719 564.386719 179.136719 C 564.71875 179.636719 565 180.164062 565.230469 180.71875 C 565.460938 181.277344 565.636719 181.847656 565.753906 182.4375 C 565.871094 183.027344 565.929688 183.625 565.929688 184.226562 Z M 565.929688 184.226562 " fill-opacity="1" fill-rule="nonzero"/><path fill="#00c950" d="M 648.890625 174.871094 L 678.042969 174.871094 L 678.042969 177.097656 L 648.890625 177.097656 Z M 648.890625 174.871094 " fill-opacity="1" fill-rule="nonzero"/><path fill="#00c950" d="M 623.1875 174.871094 L 644.410156 174.871094 L 644.410156 177.097656 L 623.1875 177.097656 Z M 623.1875 174.871094 " fill-opacity="1" fill-rule="nonzero"/><path fill="#00c950" d="M 642.835938 191.339844 L 665.933594 191.339844 L 665.933594 193.5625 L 642.835938 193.5625 Z M 642.835938 191.339844 " fill-opacity="1" fill-rule="nonzero"/><path fill="#00c950" d="M 623.1875 191.339844 L 638.355469 191.339844 L 638.355469 193.5625 L 623.1875 193.5625 Z M 623.1875 191.339844 " fill-opacity="1" fill-rule="nonzero"/><path fill="#00c950" d="M 609.671875 188.039062 C 609.671875 188.839844 609.476562 189.703125 609.082031 190.628906 C 608.6875 191.550781 608.066406 192.472656 607.21875 193.367188 C 606.371094 194.261719 605.296875 194.988281 603.996094 195.546875 C 602.679688 196.105469 601.152344 196.378906 599.410156 196.378906 C 598.09375 196.378906 596.882812 196.257812 595.808594 196 C 594.71875 195.742188 593.75 195.367188 592.855469 194.835938 C 591.976562 194.304688 591.160156 193.609375 590.417969 192.746094 C 589.753906 191.960938 589.191406 191.082031 588.722656 190.113281 C 588.253906 189.144531 587.90625 188.101562 587.679688 186.996094 C 587.4375 185.890625 587.332031 184.710938 587.332031 183.46875 C 587.332031 181.457031 587.617188 179.640625 588.207031 178.050781 C 588.800781 176.460938 589.632812 175.082031 590.738281 173.960938 C 591.839844 172.84375 593.113281 171.964844 594.582031 171.375 C 596.050781 170.785156 597.625 170.480469 599.289062 170.480469 C 601.316406 170.480469 603.117188 170.890625 604.707031 171.691406 C 606.296875 172.496094 607.507812 173.507812 608.355469 174.6875 C 609.203125 175.886719 609.625 177.003906 609.625 178.066406 C 609.625 178.640625 609.414062 179.15625 609.007812 179.609375 C 608.597656 180.046875 608.097656 180.273438 607.523438 180.273438 C 606.871094 180.273438 606.386719 180.125 606.070312 179.820312 C 605.753906 179.519531 605.390625 178.988281 604.980469 178.230469 C 604.3125 176.988281 603.542969 176.066406 602.648438 175.445312 C 601.757812 174.824219 600.652344 174.523438 599.335938 174.523438 C 597.246094 174.523438 595.59375 175.308594 594.355469 176.898438 C 593.113281 178.488281 592.492188 180.730469 592.492188 183.648438 C 592.492188 185.601562 592.765625 187.222656 593.308594 188.507812 C 593.855469 189.796875 594.625 190.765625 595.640625 191.398438 C 596.640625 192.035156 597.820312 192.351562 599.167969 192.351562 C 600.621094 192.351562 601.863281 191.988281 602.859375 191.261719 C 603.875 190.535156 604.632812 189.476562 605.144531 188.070312 C 605.359375 187.402344 605.628906 186.875 605.949219 186.449219 C 606.265625 186.042969 606.78125 185.828125 607.492188 185.828125 C 608.097656 185.828125 608.613281 186.042969 609.050781 186.464844 C 609.492188 186.890625 609.703125 187.402344 609.703125 188.039062 Z M 609.671875 188.039062 " fill-opacity="1" fill-rule="nonzero"/><path fill="#00c950" d="M 556.769531 244.695312 C 547.582031 244.695312 540.105469 237.21875 540.105469 228.03125 C 540.105469 218.84375 547.582031 211.363281 556.769531 211.363281 C 565.957031 211.363281 573.4375 218.84375 573.4375 228.03125 C 573.4375 237.21875 565.957031 244.695312 556.769531 244.695312 Z M 556.769531 213.515625 C 548.761719 213.515625 542.253906 220.023438 542.253906 228.03125 C 542.253906 236.035156 548.761719 242.546875 556.769531 242.546875 C 564.777344 242.546875 571.285156 236.035156 571.285156 228.03125 C 571.285156 220.023438 564.777344 213.515625 556.769531 213.515625 Z M 556.769531 213.515625 " fill-opacity="1" fill-rule="nonzero"/><path fill="#00c950" d="M 648.890625 218.675781 L 678.042969 218.675781 L 678.042969 220.902344 L 648.890625 220.902344 Z M 648.890625 218.675781 " fill-opacity="1" fill-rule="nonzero"/><path fill="#00c950" d="M 623.1875 218.675781 L 644.410156 218.675781 L 644.410156 220.902344 L 623.1875 220.902344 Z M 623.1875 218.675781 " fill-opacity="1" fill-rule="nonzero"/><path fill="#00c950" d="M 642.835938 235.144531 L 665.933594 235.144531 L 665.933594 237.367188 L 642.835938 237.367188 Z M 642.835938 235.144531 " fill-opacity="1" fill-rule="nonzero"/><path fill="#00c950" d="M 623.1875 235.144531 L 638.355469 235.144531 L 638.355469 237.367188 L 623.1875 237.367188 Z M 623.1875 235.144531 " fill-opacity="1" fill-rule="nonzero"/><path fill="#00c950" d="M 591.464844 214.695312 L 598.078125 214.695312 C 599.804688 214.695312 601.273438 214.859375 602.496094 215.179688 C 603.722656 215.496094 604.84375 216.101562 605.84375 216.980469 C 608.445312 219.21875 609.761719 222.609375 609.761719 227.167969 C 609.761719 228.664062 609.628906 230.042969 609.371094 231.285156 C 609.113281 232.523438 608.703125 233.644531 608.160156 234.644531 C 607.613281 235.644531 606.917969 236.535156 606.054688 237.324219 C 605.390625 237.929688 604.648438 238.414062 603.84375 238.777344 C 603.042969 239.140625 602.195312 239.398438 601.273438 239.546875 C 600.347656 239.699219 599.320312 239.777344 598.167969 239.777344 L 591.554688 239.777344 C 590.628906 239.777344 589.933594 239.640625 589.464844 239.351562 C 588.996094 239.078125 588.691406 238.6875 588.558594 238.171875 C 588.421875 237.671875 588.34375 237.003906 588.34375 236.203125 L 588.34375 217.828125 C 588.34375 216.738281 588.585938 215.9375 589.085938 215.453125 C 589.570312 214.96875 590.375 214.710938 591.464844 214.710938 Z M 593.429688 218.707031 L 593.429688 235.71875 L 597.277344 235.71875 C 598.125 235.71875 598.773438 235.6875 599.257812 235.660156 C 599.742188 235.613281 600.226562 235.492188 600.742188 235.308594 C 601.257812 235.128906 601.695312 234.871094 602.074219 234.539062 C 603.769531 233.101562 604.617188 230.632812 604.617188 227.121094 C 604.617188 224.65625 604.238281 222.792969 603.496094 221.566406 C 602.753906 220.339844 601.832031 219.554688 600.742188 219.21875 C 599.652344 218.886719 598.320312 218.722656 596.777344 218.722656 L 593.429688 218.722656 Z M 593.429688 218.707031 " fill-opacity="1" fill-rule="nonzero"/><g transform="matrix(1, 0, 0, 1, 342, 90)"><g clip-path="url(#c5c96bbfc4)"><g fill="#ffffff" fill-opacity="1"><g transform="translate(0.445051, 45.624403)"><g><path d="M 13.1875 -4.65625 C 14.300781 -4.65625 15.632812 -4.898438 17.1875 -5.390625 L 17.1875 -0.640625 C 15.601562 0.0664062 13.65625 0.421875 11.34375 0.421875 C 8.789062 0.421875 6.929688 -0.222656 5.765625 -1.515625 C 4.609375 -2.804688 4.03125 -4.738281 4.03125 -7.3125 L 4.03125 -18.578125 L 0.984375 -18.578125 L 0.984375 -21.265625 L 4.484375 -23.390625 L 6.328125 -28.328125 L 10.40625 -28.328125 L 10.40625 -23.359375 L 16.9375 -23.359375 L 16.9375 -18.578125 L 10.40625 -18.578125 L 10.40625 -7.3125 C 10.40625 -6.40625 10.65625 -5.734375 11.15625 -5.296875 C 11.664062 -4.867188 12.34375 -4.65625 13.1875 -4.65625 Z M 13.1875 -4.65625 "/></g></g></g></g></g></svg>